<?xml version="1.0" encoding="utf-8"?><svg xmlns="http://www.w3.org/2000/svg" xmlns:xlink="http://www.w3.org/1999/xlink"><symbol viewBox="0 0 21 21" id="ico-calc" xmlns="http://www.w3.org/2000/svg"><g clip-path="url(#aclip0)"><path d="M21 1.723v17.554c-.145.304-.256.632-.443.908-.303.445-.764.68-1.28.815H1.723c-.515-.134-.978-.37-1.28-.815-.187-.276-.298-.604-.443-.908V1.723c.145-.305.256-.632.443-.908C.745.37 1.208.134 1.723 0h17.554c.304.145.632.256.907.443.447.301.682.765.816 1.28zm-1.313 8.112V4.657c0-.902.003-1.804 0-2.707-.002-.43-.2-.626-.626-.638h-7.893v8.523h8.52zM9.835 1.313H1.98c-.47 0-.66.195-.668.659v7.854h8.52V1.313zm9.854 9.856H11.17v8.518h7.84c.484 0 .677-.198.677-.69v-7.829zm-9.852 0H1.312v7.841c0 .075.006.15.019.224.041.232.174.383.41.426.108.017.216.026.325.025h7.769v-8.516z"/><path d="M15.422 5.25h1.577c.431 0 .724.274.72.666-.003.377-.3.645-.719.646-1.072 0-2.143.003-3.215 0a.656.656 0 0 1-.164-1.29.915.915 0 0 1 .223-.02h1.577v-.003zM4.594 6.563H3.332c-.41 0-.707-.28-.707-.661.002-.375.292-.649.695-.652l1.21-.004a.351.351 0 0 0 .063-.019V3.951c0-.271.12-.476.362-.6a.652.652 0 0 1 .95.578c.007.219 0 .438 0 .657v.662h.966c.123 0 .246-.004.369 0a.656.656 0 0 1-.01 1.31c-.43.006-.862 0-1.325 0v.2c0 .37.004.739 0 1.108a.656.656 0 0 1-.644.66.651.651 0 0 1-.665-.659c-.007-.424-.002-.854-.002-1.304zm10.818 8.53h-1.576c-.417 0-.71-.273-.71-.656-.001-.383.293-.656.708-.656 1.058-.002 2.116-.002 3.174 0 .417 0 .71.274.71.656s-.29.654-.709.656c-.532.002-1.064 0-1.597 0zm.003 1.969h-1.577c-.417 0-.712-.273-.713-.653-.002-.38.294-.659.707-.66h3.194c.398 0 .69.28.692.653.002.374-.287.657-.685.66-.54.002-1.078 0-1.618 0zM4.659 15.419c-.391-.388-.762-.751-1.128-1.119-.311-.31-.333-.703-.06-.98.273-.276.672-.26.98.049.371.369.738.746 1.12 1.134l1.16-1.162c.183-.184.4-.261.653-.194.5.133.657.729.288 1.108-.378.385-.765.76-1.205 1.197.16.135.315.255.456.39.246.235.486.48.726.723.292.297.304.697.03.965-.274.269-.665.253-.952-.034-.378-.375-.751-.755-1.16-1.168-.12.13-.226.254-.339.37-.273.277-.546.554-.827.825a.646.646 0 0 1-.92.01.644.644 0 0 1 0-.936c.38-.39.77-.772 1.178-1.178z"/></g><defs><clipPath id="aclip0"><path d="M0 0h21v21H0z"/></clipPath></defs></symbol><symbol viewBox="0 0 21 21" id="ico-call" xmlns="http://www.w3.org/2000/svg"><g clip-path="url(#bclip0)"><path d="M15.955 21c-.287-.048-.577-.088-.861-.145-1.436-.287-2.756-.866-4.015-1.59-2.625-1.507-4.854-3.483-6.813-5.772-1.303-1.521-2.427-3.161-3.259-4.99C.519 7.432.146 6.324.033 5.14A.434.434 0 0 0 0 5.046v-.943c.014-.066.031-.132.042-.199.086-.656.28-1.276.728-1.771.473-.52.98-1.01 1.487-1.497.3-.287.674-.46 1.08-.557.106-.025.21-.052.316-.078h.615c.125.03.252.056.376.09.45.122.86.36 1.19.693.606.607 1.22 1.213 1.824 1.826 1.016 1.033 1.019 2.565.095 3.677A2.604 2.604 0 0 0 7.91 9.83c.807.817 1.623 1.625 2.435 2.437.048.049.098.096.143.147.24.279.23.656-.022.908a.644.644 0 0 1-.907.015c-.932-.924-1.891-1.824-2.77-2.797-1.294-1.436-1.28-3.618-.038-5.094.551-.656.52-1.361-.089-1.971-.56-.562-1.12-1.122-1.681-1.682-.644-.642-1.399-.646-2.035-.004-.321.324-.658.638-.943.994-.546.687-.656 1.501-.585 2.347.123 1.497.71 2.838 1.436 4.125 1.034 1.835 2.357 3.448 3.838 4.937 1.52 1.527 3.172 2.888 5.053 3.954 1.098.623 2.244 1.13 3.495 1.356.825.15 1.652.18 2.431-.186.31-.145.59-.363.856-.584.265-.22.498-.486.743-.734.552-.556.56-1.348.01-1.904a255.985 255.985 0 0 0-1.812-1.813c-.539-.533-1.288-.553-1.866-.055-.333.287-.725.287-.98-.004s-.205-.687.114-.98a2.637 2.637 0 0 1 3.623.072c.638.619 1.261 1.252 1.887 1.884.38.38.63.87.717 1.4.01.047.023.092.038.137v.615a.517.517 0 0 0-.033.095c-.093.604-.378 1.103-.81 1.528-.346.34-.69.683-1.03 1.028a3.15 3.15 0 0 1-1.55.869c-.224.053-.451.087-.68.13h-.943z"/><path d="M12.515 14.26a.646.646 0 0 1-.651.646.662.662 0 0 1-.661-.665.667.667 0 0 1 .656-.648.651.651 0 0 1 .656.666z"/></g><defs><clipPath id="bclip0"><path d="M0 0h21v21H0z"/></clipPath></defs></symbol><symbol viewBox="0 0 13 16" id="ico-download" xmlns="http://www.w3.org/2000/svg"><g clip-path="url(#cclip0)"><path d="M12.997 8.001c0 2.232-.004 4.463.003 6.695.001.579-.351 1.056-.844 1.224a1.28 1.28 0 0 1-.402.077c-3.503.004-7.006.004-10.51 0a1.255 1.255 0 0 1-1.24-1.262L0 4.587c0-.537.18-.978.56-1.355.912-.901 1.815-1.812 2.72-2.718.256-.257.554-.429.914-.486.089-.015.18-.024.27-.026h7.261c.568 0 1.087.383 1.231.943.029.122.042.247.04.371.002 1.695.002 3.39.001 5.086v1.6zm-1 0v-6.71a.324.324 0 0 0-.021-.128c-.058-.13-.17-.164-.301-.164H4.507a.689.689 0 0 0-.51.212c-.926.928-1.853 1.855-2.78 2.78a.696.696 0 0 0-.214.52c.002.596 0 1.192 0 1.789L1 14.713a.277.277 0 0 0 .214.278.607.607 0 0 0 .147.009h10.331c.198 0 .305-.108.305-.302V8.002z"/><path d="M6 9.779V6.022c0-.202.082-.36.258-.459A.496.496 0 0 1 7 5.997c.003.86 0 1.719 0 2.578v1.109c0 .025.003.05.006.095.037-.033.062-.053.084-.076.351-.35.7-.703 1.054-1.053a.495.495 0 0 1 .809.142c.093.19.048.411-.119.578-.407.41-.815.818-1.224 1.226-.248.25-.5.494-.74.75a.523.523 0 0 1-.74 0c-.647-.66-1.302-1.31-1.954-1.964a.527.527 0 0 1-.175-.362.504.504 0 0 1 .299-.48.494.494 0 0 1 .548.102c.282.278.56.558.84.838.082.083.165.165.25.248.013.014.03.025.063.05zm.5 3.721H3.51a.501.501 0 0 1-.203-.96.499.499 0 0 1 .19-.04c.407-.002.813 0 1.219 0h4.762c.243 0 .426.131.497.352a.498.498 0 0 1-.469.646c-.473.004-.947 0-1.421 0H6.5v.002zM5.001 2.908v.805c-.002.6-.344 1.065-.916 1.238-.11.031-.224.047-.338.047C3.17 5.002 2.591 5 2.015 5a.499.499 0 1 1 .004-1h1.687c.2 0 .297-.097.297-.295V2.01a.48.48 0 0 1 .268-.45.497.497 0 0 1 .73.427c.003.154 0 .307 0 .46v.461z"/></g><defs><clipPath id="cclip0"><path d="M0 0h13v16H0z"/></clipPath></defs></symbol><symbol viewBox="0 0 7.99 13.97" id="ico-fb" xmlns="http://www.w3.org/2000/svg"><path d="M7.994 0v2.438h-2.13a.65.65 0 0 0-.443.124.615.615 0 0 0-.24.382.862.862 0 0 0 0 .225v1.685h2.813V7.1H5.146v6.865H2.448v-6.82H.005V4.9h2.432V3.136a3.3 3.3 0 0 1 .521-1.612A3.432 3.432 0 0 1 4.22.36c.356-.195.75-.314 1.157-.35h.105L7.994 0z"/></symbol><symbol viewBox="0 0 7.99 13.97" id="ico-fb-w" xmlns="http://www.w3.org/2000/svg"><path d="M7.994 0v2.438h-2.13a.65.65 0 0 0-.443.124.615.615 0 0 0-.24.382.862.862 0 0 0 0 .225v1.685h2.813V7.1H5.146v6.865H2.448v-6.82H.005V4.9h2.432V3.136a3.3 3.3 0 0 1 .521-1.612A3.432 3.432 0 0 1 4.22.36c.356-.195.75-.314 1.157-.35h.105L7.994 0z"/></symbol><symbol viewBox="0 0 14.2 14.09" id="ico-home" xmlns="http://www.w3.org/2000/svg"><path d="M8.65 8.405H5.358V14H1.91c-.37 0-.554-.193-.554-.587V7.026a.743.743 0 0 0-.087.05c-.364.299-.822.261-1.093-.093-.276-.361-.223-.86.127-1.176L3.316 3.08 6.446.25c.366-.331.736-.336 1.1-.006l6.13 5.546c.367.33.429.815.151 1.185-.278.37-.732.402-1.115.087a1.11 1.11 0 0 0-.07-.052v6.393c0 .184-.026.36-.172.472a.535.535 0 0 1-.295.12c-1.155.007-2.311.005-3.467.004a.321.321 0 0 1-.06-.015l.001-5.579z"/></symbol><symbol viewBox="0 0 17.04 17.07" id="ico-inst" xmlns="http://www.w3.org/2000/svg"><path d="M17.027 8.514v3.69a4.77 4.77 0 0 1-3.092 4.423 6.38 6.38 0 0 1-2.401.4H5.136a5.103 5.103 0 0 1-2.911-.831 4.715 4.715 0 0 1-2.092-2.865A5 5 0 0 1 0 12.221V4.938c0-1.25.35-2.373 1.24-3.279A5.102 5.102 0 0 1 4.454.052C5.22-.017 5.985.004 6.735.001h4.888c1.105 0 2.166.179 3.11.79a4.73 4.73 0 0 1 2.136 2.807c.097.401.148.812.15 1.225.018 1.23 0 2.46 0 3.689l.008.002zm-15.751 0v3.725c0 1.441.765 2.419 1.99 3.087.595.3 1.257.445 1.923.421h6.59a4.243 4.243 0 0 0 2.179-.559c1.153-.668 1.785-1.653 1.785-2.992.016-2.488.02-4.975 0-7.465 0-1.472-.834-2.444-2.091-3.09a3.888 3.888 0 0 0-1.814-.372H5.284a4.288 4.288 0 0 0-2.021.446c-1.222.636-1.96 1.625-1.987 3.041-.031 1.253 0 2.506 0 3.758z"/><path d="M8.521 12.152a3.948 3.948 0 1 1 4.005-3.94 3.985 3.985 0 0 1-4.005 3.94zM5.799 8.205a2.73 2.73 0 1 0 2.73-2.679 2.72 2.72 0 0 0-2.73 2.68zM13.83 3.927a.839.839 0 1 1-.834-.87.868.868 0 0 1 .834.87z"/><defs><linearGradient id="gpaint0_linear" x1="8.514" y1="0" x2="8.514" y2="17.03" gradientUnits="userSpaceOnUse"><stop stop-color="#723FA5"/><stop offset=".495" stop-color="#E13122"/><stop offset="1" stop-color="#F3CF48"/></linearGradient><linearGradient id="gpaint1_linear" x1="8.58" y1="4.259" x2="8.58" y2="12.152" gradientUnits="userSpaceOnUse"><stop stop-color="#723FA5"/><stop offset=".495" stop-color="#E13122"/><stop offset="1" stop-color="#F3CF48"/></linearGradient><linearGradient id="gpaint2_linear" x1="12.991" y1="3.057" x2="12.991" y2="4.736" gradientUnits="userSpaceOnUse"><stop stop-color="#723FA5"/><stop offset=".495" stop-color="#E13122"/><stop offset="1" stop-color="#F3CF48"/></linearGradient></defs></symbol><symbol viewBox="0 0 17.04 17.07" id="ico-inst-w" xmlns="http://www.w3.org/2000/svg"><path d="M17.027 8.514v3.69a4.77 4.77 0 0 1-3.092 4.423 6.38 6.38 0 0 1-2.401.4H5.136a5.103 5.103 0 0 1-2.911-.831 4.715 4.715 0 0 1-2.092-2.865A5 5 0 0 1 0 12.221V4.938c0-1.25.35-2.373 1.24-3.279A5.102 5.102 0 0 1 4.454.052C5.22-.017 5.985.004 6.735.001h4.888c1.105 0 2.166.179 3.11.79a4.73 4.73 0 0 1 2.136 2.807c.097.401.148.812.15 1.225.018 1.23 0 2.46 0 3.689l.008.002zm-15.751 0v3.725c0 1.441.765 2.419 1.99 3.087.595.3 1.257.445 1.923.421h6.59a4.243 4.243 0 0 0 2.179-.559c1.153-.668 1.785-1.653 1.785-2.992.016-2.488.02-4.975 0-7.465 0-1.472-.834-2.444-2.091-3.09a3.888 3.888 0 0 0-1.814-.372H5.284a4.288 4.288 0 0 0-2.021.446c-1.222.636-1.96 1.625-1.987 3.041-.031 1.253 0 2.506 0 3.758z"/><path d="M8.521 12.152a3.948 3.948 0 1 1 4.005-3.94 3.985 3.985 0 0 1-4.005 3.94zM5.799 8.205a2.73 2.73 0 1 0 2.73-2.679 2.72 2.72 0 0 0-2.73 2.68zm8.031-4.278a.839.839 0 1 1-.834-.87.868.868 0 0 1 .834.87z"/></symbol><symbol viewBox="0 0 10 14" id="ico-location" xmlns="http://www.w3.org/2000/svg"><path d="M5 7.217a2.256 2.256 0 0 1-2.259-2.252 2.255 2.255 0 0 1 2.26-2.252 2.256 2.256 0 0 1 2.258 2.252A2.256 2.256 0 0 1 5 7.217zM5 0C2.24 0 0 2.23 0 4.983c0 2.6 2.265 5.954 3.777 7.587C4.342 13.178 5 14 5 14s.707-.826 1.313-1.453C7.823 10.982 10 7.84 10 4.983 10 2.231 7.761 0 5 0z"/></symbol><symbol viewBox="0 0 36 51" id="ico-marker" xmlns="http://www.w3.org/2000/svg"><path d="M18.001 26.289c-4.49 0-8.133-3.672-8.133-8.201 0-4.534 3.643-8.203 8.133-8.203 4.49 0 8.133 3.671 8.133 8.203 0 4.527-3.643 8.2-8.133 8.2zm0-26.289C8.06 0 0 8.127 0 18.154c0 9.47 8.152 21.687 13.596 27.635C15.63 48.008 18 51 18 51s2.545-3.009 4.727-5.294C28.166 40.006 36 28.563 36 18.154 36 8.127 27.941 0 18.001 0z"/></symbol><symbol viewBox="0 0 12.92 12.95" id="ico-treangle" xmlns="http://www.w3.org/2000/svg"><g clip-path="url(#kclip0)"><path d="M0 .114C.005.053.073.025.128.054c.215.112.43.225.648.334l12.067 6.031.022.011c.057.029.058.11.002.14A433683.807 433683.807 0 0 0 .114 12.944c-.047.028-.108.008-.115-.046V.114z"/></g><defs><clipPath id="kclip0"><path transform="matrix(-1 0 0 1 13 0)" d="M0 0h13v13H0z"/></clipPath></defs></symbol><symbol viewBox="0 0 17.04 10.03" id="ico-vk" xmlns="http://www.w3.org/2000/svg"><path d="M11 3.458c0 .438-.018.852-.02 1.26-.005.223.02.445.076.66.034.138.11.26.216.351a.209.209 0 0 0 .19.038.795.795 0 0 0 .307-.187c.21-.198.399-.419.565-.658a12.556 12.556 0 0 0 1.442-2.697c.066-.161.13-.32.192-.484a.535.535 0 0 1 .245-.292.588.588 0 0 1 .224-.038h3.056a.922.922 0 0 1 .246.068c.064.019.12.06.158.115a.31.31 0 0 1 .056.19c0 .173-.034.344-.098.504-.165.41-.373.799-.62 1.162-.46.721-.982 1.394-1.474 2.082-.164.23-.32.467-.467.706a.708.708 0 0 0-.113.451.73.73 0 0 0 .197.409c.18.196.361.39.553.574.513.47.995.976 1.442 1.513.208.255.388.533.536.83.036.08.06.164.073.251a.47.47 0 0 1-.213.505 1.047 1.047 0 0 1-.548.168c-.725.02-1.45.016-2.172.058a1.787 1.787 0 0 1-1.273-.448 5.994 5.994 0 0 1-.737-.741c-.246-.275-.474-.552-.737-.815a1.676 1.676 0 0 0-.376-.284.426.426 0 0 0-.558.09c-.122.15-.207.329-.248.52-.079.29-.123.59-.13.892a2.31 2.31 0 0 1-.022.224.523.523 0 0 1-.115.259.503.503 0 0 1-.23.157.962.962 0 0 1-.375.078h-.983a4.693 4.693 0 0 1-1.673-.33 6.424 6.424 0 0 1-2.516-1.764 16.11 16.11 0 0 1-1.818-2.501 35.74 35.74 0 0 1-2.212-4.318A.632.632 0 0 1 1 1.703a.223.223 0 0 1 .125-.186.852.852 0 0 1 .39-.096h2.443a.744.744 0 0 1 .653.504c.211.572.465 1.127.76 1.659.318.592.677 1.16 1.073 1.701.135.2.3.376.492.52a.39.39 0 0 0 .442.045.42.42 0 0 0 .17-.202c.089-.21.143-.434.162-.663a9.98 9.98 0 0 0 .032-1.603 5.847 5.847 0 0 0-.096-.95c-.015-.078-.042-.154-.057-.232a.522.522 0 0 0-.265-.338 1.23 1.23 0 0 0-.558-.189c-.056 0-.076-.03-.051-.08a.557.557 0 0 1 .083-.14c.18-.2.422-.33.686-.365A5.914 5.914 0 0 1 8.638 1c.43 0 .863 0 1.295.028.188.012.374.043.556.093a.65.65 0 0 1 .37.224.68.68 0 0 1 .155.411c.021.243.029.487.022.731-.005.33-.024.663-.037.97z"/></symbol><symbol viewBox="0 0 17.04 10.03" id="ico-vk-w" xmlns="http://www.w3.org/2000/svg"><path d="M11 3.458c0 .438-.018.852-.02 1.26-.005.223.02.445.076.66.034.138.11.26.216.351a.209.209 0 0 0 .19.038.795.795 0 0 0 .307-.187c.21-.198.399-.419.565-.658a12.556 12.556 0 0 0 1.442-2.697c.066-.161.13-.32.192-.484a.535.535 0 0 1 .245-.292.588.588 0 0 1 .224-.038h3.056a.922.922 0 0 1 .246.068c.064.019.12.06.158.115a.31.31 0 0 1 .056.19c0 .173-.034.344-.098.504-.165.41-.373.799-.62 1.162-.46.721-.982 1.394-1.474 2.082-.164.23-.32.467-.467.706a.708.708 0 0 0-.113.451.73.73 0 0 0 .197.409c.18.196.361.39.553.574.513.47.995.976 1.442 1.513.208.255.388.533.536.83.036.08.06.164.073.251a.47.47 0 0 1-.213.505 1.047 1.047 0 0 1-.548.168c-.725.02-1.45.016-2.172.058a1.787 1.787 0 0 1-1.273-.448 5.994 5.994 0 0 1-.737-.741c-.246-.275-.474-.552-.737-.815a1.676 1.676 0 0 0-.376-.284.426.426 0 0 0-.558.09c-.122.15-.207.329-.248.52-.079.29-.123.59-.13.892a2.31 2.31 0 0 1-.022.224.523.523 0 0 1-.115.259.503.503 0 0 1-.23.157.962.962 0 0 1-.375.078h-.983a4.693 4.693 0 0 1-1.673-.33 6.424 6.424 0 0 1-2.516-1.764 16.11 16.11 0 0 1-1.818-2.501 35.74 35.74 0 0 1-2.212-4.318A.632.632 0 0 1 1 1.703a.223.223 0 0 1 .125-.186.852.852 0 0 1 .39-.096h2.443a.744.744 0 0 1 .653.504c.211.572.465 1.127.76 1.659.318.592.677 1.16 1.073 1.701.135.2.3.376.492.52a.39.39 0 0 0 .442.045.42.42 0 0 0 .17-.202c.089-.21.143-.434.162-.663a9.98 9.98 0 0 0 .032-1.603 5.847 5.847 0 0 0-.096-.95c-.015-.078-.042-.154-.057-.232a.522.522 0 0 0-.265-.338 1.23 1.23 0 0 0-.558-.189c-.056 0-.076-.03-.051-.08a.557.557 0 0 1 .083-.14c.18-.2.422-.33.686-.365A5.914 5.914 0 0 1 8.638 1c.43 0 .863 0 1.295.028.188.012.374.043.556.093a.65.65 0 0 1 .37.224.68.68 0 0 1 .155.411c.021.243.029.487.022.731-.005.33-.024.663-.037.97z"/></symbol><symbol viewBox="0 0 20.16 20.15" id="ico-write" xmlns="http://www.w3.org/2000/svg"><path d="M9.991 19.985c-1.98 0-3.962.034-5.942-.01C1.885 19.929.1 18.158.032 15.996c-.053-1.658-.024-3.319-.026-4.979C.003 8.863.011 6.71.003 4.557c-.004-.886.133-1.73.613-2.492C1.443.754 2.64.044 4.182.019 6.46-.017 8.74.01 11.017.01c.397 0 .686.282.69.65.003.376-.294.663-.703.663-2.255.003-4.51-.002-6.765.003-.85.002-1.568.325-2.146.949-.542.585-.777 1.285-.773 2.08.006 1.463.002 2.927.001 4.392 0 2.27.002 4.54-.002 6.811-.001.507.051 1.002.288 1.458.553 1.065 1.426 1.649 2.633 1.658 2.176.016 4.353.007 6.53.008 1.651 0 3.303.009 4.956-.005 1.524-.012 2.683-1.02 2.927-2.521a2.64 2.64 0 0 0 .025-.421l.001-6.577v-.164c.01-.406.297-.704.67-.698.366.007.644.301.645.697.004 1.104.003 2.208.002 3.312 0 1.158.012 2.317-.005 3.476-.029 1.947-1.306 3.602-3.155 4.066-.435.11-.898.14-1.348.144-1.832.015-3.665.006-5.497.006v-.012z"/><path d="M7.501 10.683c0-.446-.003-.892.001-1.338a.859.859 0 0 1 .271-.626c2.694-2.687 5.383-5.379 8.074-8.068.116-.116.236-.23.365-.33.582-.452 1.33-.413 1.856.101.509.499 1.015 1 1.51 1.512.562.58.547 1.464-.019 2.029l-6.565 6.554c-.576.575-1.142 1.161-1.734 1.72a.992.992 0 0 1-.553.255c-.857.073-1.717.115-2.577.16-.477.025-.748-.25-.736-.726.005-.211.011-.422.02-.634.01-.203.024-.406.036-.61h.05zm1.232.62c.531-.034 1.03-.056 1.528-.102a.598.598 0 0 0 .34-.159c2.607-2.597 5.209-5.2 7.81-7.804.098-.097.185-.206.249-.278l-1.616-1.62c-.05.043-.124.1-.189.165l-1.38 1.378c-2.17 2.17-4.34 4.34-6.509 6.513-.067.067-.145.16-.15.247-.038.537-.056 1.076-.083 1.66z"/></symbol><symbol viewBox="0 0 14.12 11.14" id="ico-youtube" xmlns="http://www.w3.org/2000/svg"><path d="M7.03 11a22.446 22.446 0 0 1-5.754-.78c-.488-.131-.762-.467-.867-.954a17.683 17.683 0 0 1-.385-4.701C.076 3.6.208 2.642.421 1.7c.109-.483.4-.788.881-.918A22.95 22.95 0 0 1 5.232.08a21.414 21.414 0 0 1 7.605.72c.54.151.767.56.855 1.09.252 1.51.366 3.03.277 4.554-.057.961-.193 1.92-.32 2.875-.065.477-.373.774-.834.897-1.886.51-3.83.774-5.785.784zM5.495 5.5v1.4c0 .29-.003.58 0 .87.002.154.055.285.198.362.133.071.244.011.356-.063 1.12-.74 2.24-1.478 3.36-2.216.3-.197.3-.518.002-.714l-1.154-.755-2.226-1.457c-.212-.138-.417-.086-.497.13a.739.739 0 0 0-.037.251c-.003.731-.002 1.46-.002 2.191z"/></symbol><symbol viewBox="0 0 14.12 11.14" id="ico-youtube-w" xmlns="http://www.w3.org/2000/svg"><path d="M7.03 11a22.446 22.446 0 0 1-5.754-.78c-.488-.131-.762-.467-.867-.954a17.683 17.683 0 0 1-.385-4.701C.076 3.6.208 2.642.421 1.7c.109-.483.4-.788.881-.918A22.95 22.95 0 0 1 5.232.08a21.414 21.414 0 0 1 7.605.72c.54.151.767.56.855 1.09.252 1.51.366 3.03.277 4.554-.057.961-.193 1.92-.32 2.875-.065.477-.373.774-.834.897-1.886.51-3.83.774-5.785.784zM5.495 5.5v1.4c0 .29-.003.58 0 .87.002.154.055.285.198.362.133.071.244.011.356-.063 1.12-.74 2.24-1.478 3.36-2.216.3-.197.3-.518.002-.714l-1.154-.755-2.226-1.457c-.212-.138-.417-.086-.497.13a.739.739 0 0 0-.037.251c-.003.731-.002 1.46-.002 2.191z"/></symbol><symbol viewBox="0 0 15.36 15.65" id="ico-zoom" xmlns="http://www.w3.org/2000/svg"><path d="M15.002 14.782L10.08 9.745a.365.365 0 0 0-.522.511l4.924 5.037a.365.365 0 0 0 .521-.511z"/><path d="M14.346 15.427L9.423 10.39a.553.553 0 0 1 .01-.784c.22-.215.57-.21.785.01l4.924 5.037c.215.22.21.57-.01.785a.563.563 0 0 1-.786-.011zm-4.655-5.3l4.924 5.037c.07.07.183.07.253.005.07-.07.07-.183.005-.253L9.95 9.88a.184.184 0 0 0-.252-.006.174.174 0 0 0-.006.253z"/><path d="M5.924 11.659A5.744 5.744 0 0 1 .188 5.923 5.744 5.744 0 0 1 5.924.188a5.744 5.744 0 0 1 5.735 5.736 5.744 5.744 0 0 1-5.735 5.735zm0-10.82a5.097 5.097 0 0 0-5.09 5.09 5.097 5.097 0 0 0 5.09 5.09 5.097 5.097 0 0 0 5.09-5.09 5.097 5.097 0 0 0-5.09-5.09z"/><path d="M5.924 11.847A5.928 5.928 0 0 1 0 5.924 5.928 5.928 0 0 1 5.924 0a5.928 5.928 0 0 1 5.923 5.924 5.931 5.931 0 0 1-5.923 5.923zm0-11.465A5.554 5.554 0 0 0 .376 5.929a5.554 5.554 0 0 0 5.548 5.547A5.554 5.554 0 0 0 11.47 5.93 5.554 5.554 0 0 0 5.924.382zm0 10.82A5.284 5.284 0 0 1 .645 5.924 5.28 5.28 0 0 1 5.924.645a5.28 5.28 0 0 1 5.278 5.279 5.284 5.284 0 0 1-5.278 5.278zm0-10.175A4.907 4.907 0 0 0 1.02 5.929a4.907 4.907 0 0 0 4.903 4.902 4.907 4.907 0 0 0 4.902-4.902 4.907 4.907 0 0 0-4.902-4.902z"/></symbol></svg>