<svg width="40" height="52" viewBox="0 0 40 52" fill="none" xmlns="http://www.w3.org/2000/svg">
<path d="M31.2029 51H8.3248C7.3629 51 6.41041 50.8115 5.52172 50.4453C4.63304 50.0791 3.82556 49.5424 3.14539 48.8657C2.46521 48.1891 1.92568 47.3858 1.55757 46.5017C1.18946 45.6177 1 44.6701 1 43.7132V8.97478C1 7.0422 1.77172 5.18879 3.14539 3.82225C4.51905 2.45571 6.38215 1.68799 8.3248 1.68799H25.3461L38.5315 13.997V43.7132C38.5315 44.6704 38.3419 45.6183 37.9736 46.5026C37.6052 47.3869 37.0654 48.1904 36.3848 48.8671C35.7042 49.5438 34.8963 50.0804 34.0071 50.4464C33.118 50.8124 32.1651 51.0005 31.2029 51V51Z" stroke="#284885" stroke-width="2" stroke-miterlimit="10"/>
<path d="M7.50497 23.499H31.935" stroke="#284885" stroke-width="2" stroke-miterlimit="10"/>
<path d="M7.54694 31.4875H25.2584" stroke="#284885" stroke-width="2" stroke-miterlimit="10"/>
<path d="M7.54694 39.5178H38.5277" stroke="#284885" stroke-width="2" stroke-miterlimit="10"/>
<path d="M25.3423 1.68799V14.1639H38.5277" stroke="#284885" stroke-width="2" stroke-miterlimit="10"/>
</svg>
