<svg width="20" height="20" viewBox="0 0 20 20" fill="none" xmlns="http://www.w3.org/2000/svg">
<path d="M9.99117 19.9849C8.01033 19.9849 6.0288 20.0192 4.0489 19.9757C1.88535 19.9281 0.100909 18.1571 0.0320292 15.9948C-0.0207817 14.3368 0.0081609 12.676 0.00595262 11.0164C0.00313353 8.86346 0.0113089 6.71038 0.00280464 4.55735C-0.000719226 3.67149 0.136289 2.82637 0.616426 2.06473C1.44275 0.754006 2.63997 0.0437213 4.1821 0.0193842C6.45997 -0.0165575 8.73878 0.00806141 11.0172 0.0103166C11.4135 0.0106924 11.703 0.292166 11.7064 0.660839C11.71 1.03614 11.4134 1.32306 11.0043 1.32348C8.74931 1.3256 6.49441 1.32099 4.23947 1.32574C3.389 1.32752 2.67074 1.65119 2.09321 2.27484C1.55105 2.86024 1.31641 3.56042 1.31993 4.35434C1.32646 5.81837 1.32157 7.28249 1.32139 8.74656C1.3211 11.017 1.32275 13.2875 1.3189 15.558C1.31805 16.0652 1.37049 16.5602 1.60724 17.0162C2.15997 18.0809 3.03281 18.6649 4.23952 18.674C6.41604 18.6904 8.59276 18.6813 10.7694 18.6818C12.4214 18.6821 14.0735 18.6905 15.7255 18.6772C17.2498 18.6648 18.4092 17.6563 18.6532 16.1556C18.6757 16.0176 18.6776 15.875 18.6777 15.7345C18.6793 13.5423 18.679 11.3502 18.6792 9.15794C18.6792 9.10316 18.6782 9.04829 18.6796 8.99355C18.689 8.58828 18.9763 8.28975 19.3499 8.29628C19.7146 8.30262 19.9932 8.59744 19.9944 8.99289C19.9977 10.0968 19.9965 11.2008 19.9963 12.3047C19.996 13.4634 20.0078 14.6223 19.9908 15.7808C19.9622 17.728 18.6853 19.3832 16.8355 19.8473C16.401 19.9563 15.938 19.987 15.4875 19.9908C13.6556 20.0063 11.8233 19.9973 9.99121 19.9973C9.99117 19.9932 9.99117 19.9891 9.99117 19.9849Z" fill="white"/>
<path d="M7.50107 10.6827C7.50107 10.2369 7.49811 9.79106 7.50224 9.34529C7.5045 9.10093 7.594 8.89783 7.77316 8.71911C10.4666 6.03193 13.1558 3.34048 15.8471 0.651143C15.9631 0.53519 16.0832 0.421304 16.2125 0.320855C16.7939 -0.130649 17.5428 -0.0922171 18.0681 0.422243C18.577 0.920683 19.0826 1.42283 19.5782 1.93438C20.1398 2.51396 20.1251 3.39761 19.559 3.96281C17.3706 6.14751 15.1822 8.33216 12.9941 10.517C12.4179 11.0923 11.8517 11.6781 11.2602 12.237C11.119 12.3705 10.8996 12.4749 10.7074 12.4915C9.84998 12.5655 8.98964 12.6068 8.12991 12.6517C7.65344 12.6766 7.38163 12.4021 7.39357 11.9261C7.39883 11.7149 7.40536 11.5036 7.4149 11.2924C7.42411 11.0891 7.43792 10.886 7.44971 10.6829C7.46682 10.6828 7.48392 10.6827 7.50107 10.6827ZM8.73282 11.3023C9.26431 11.2693 9.76357 11.2472 10.2606 11.2012C10.3792 11.1903 10.5167 11.1264 10.6012 11.0422C13.2083 8.44459 15.81 5.8416 18.4114 3.23839C18.5092 3.14052 18.5961 3.0318 18.6599 2.95978C18.113 2.41158 17.585 1.88237 17.0441 1.34024C16.9944 1.38318 16.9204 1.43961 16.855 1.50463C16.3943 1.96299 15.9353 2.42319 15.4758 2.88273C13.3052 5.05305 11.1342 7.22294 8.96596 9.39566C8.89873 9.46303 8.82144 9.55676 8.81542 9.64283C8.77802 10.1805 8.7596 10.7195 8.73282 11.3023Z" fill="white"/>
</svg>
