<svg width="13" height="13" viewBox="0 0 13 13" fill="none" xmlns="http://www.w3.org/2000/svg">
<g clip-path="url(#clip0)">
<path d="M-0.000671387 0.114004C0.00626716 0.0528152 0.0740099 0.0254042 0.128673 0.0537618C0.344458 0.165705 0.55958 0.278973 0.776966 0.387715C4.79887 2.39865 8.82127 4.40908 12.8442 6.419C12.8516 6.42269 12.8589 6.42639 12.8664 6.43016C12.9231 6.45891 12.9241 6.54031 12.8678 6.57008C8.6293 8.68783 4.39061 10.8057 0.151757 12.9238C0.138837 12.9302 0.126217 12.9372 0.113792 12.9445C0.0667541 12.9721 0.00627494 12.9525 -0.000671387 12.8984C-0.000671387 12.3827 -0.000671387 11.8669 -0.000671387 11.3511C-0.000671387 7.60551 -0.000671387 3.8598 -0.000671387 0.114004Z" fill="white"/>
</g>
<defs>
<clipPath id="clip0">
<rect width="13" height="13" fill="white" transform="matrix(-1 0 0 1 13 0)"/>
</clipPath>
</defs>
</svg>
