<svg width="16" height="16" viewBox="0 0 16 16" fill="none" xmlns="http://www.w3.org/2000/svg">
<path d="M7.99293 15.9879C6.40827 15.9879 4.82304 16.0154 3.23912 15.9805C1.50828 15.9425 0.0807271 14.5257 0.0256234 12.7958C-0.0166254 11.4694 0.00652872 10.1408 0.00476209 8.81315C0.00250682 7.09076 0.00904711 5.3683 0.00224371 3.64588C-0.000575381 2.93719 0.109031 2.26109 0.493141 1.65178C1.1542 0.603205 2.11197 0.034977 3.34568 0.0155074C5.16798 -0.013246 6.99103 0.00644913 8.81374 0.00825326C9.13079 0.00855395 9.36237 0.233733 9.36515 0.528671C9.36801 0.828909 9.13072 1.05845 8.8034 1.05879C6.99945 1.06048 5.19553 1.05679 3.39158 1.06059C2.7112 1.06202 2.13659 1.32095 1.67456 1.81987C1.24084 2.28819 1.05312 2.84834 1.05594 3.48347C1.06117 4.65469 1.05726 5.82599 1.05711 6.99725C1.05688 8.81364 1.0582 10.63 1.05512 12.4464C1.05444 12.8521 1.09639 13.2481 1.28579 13.6129C1.72798 14.4647 2.42625 14.932 3.39162 14.9392C5.13284 14.9523 6.8742 14.9451 8.6155 14.9454C9.93713 14.9457 11.2588 14.9524 12.5804 14.9417C13.7998 14.9318 14.7273 14.125 14.9226 12.9245C14.9405 12.814 14.9421 12.7 14.9421 12.5876C14.9435 10.8339 14.9432 9.08012 14.9434 7.32635C14.9434 7.28253 14.9426 7.23863 14.9436 7.19484C14.9512 6.87062 15.181 6.6318 15.4799 6.63702C15.7717 6.6421 15.9945 6.87795 15.9955 7.19431C15.9981 8.07744 15.9972 8.9606 15.997 9.84372C15.9968 10.7707 16.0062 11.6978 15.9926 12.6246C15.9698 14.1824 14.9482 15.5066 13.4684 15.8778C13.1208 15.965 12.7504 15.9896 12.39 15.9927C10.9244 16.005 9.45867 15.9978 7.99297 15.9978C7.99293 15.9945 7.99293 15.9912 7.99293 15.9879Z" fill="#F6A254"/>
<path d="M6.00134 8.54615C6.00134 8.18949 5.99897 7.83284 6.00228 7.47622C6.00409 7.28074 6.07569 7.11825 6.21901 6.97527C8.37378 4.82553 10.5251 2.67237 12.6782 0.520902C12.771 0.42814 12.867 0.337031 12.9705 0.256672C13.4356 -0.104531 14.0347 -0.0737859 14.4549 0.337783C14.8621 0.736534 15.2666 1.13825 15.6631 1.54749C16.1123 2.01116 16.1006 2.71808 15.6477 3.17024C13.897 4.91799 12.1462 6.66571 10.3957 8.41362C9.93484 8.87382 9.48187 9.34245 9.00867 9.78961C8.89568 9.89639 8.72015 9.97995 8.56641 9.99322C7.88047 10.0524 7.1922 10.0854 6.50442 10.1213C6.12324 10.1413 5.90579 9.92165 5.91534 9.5409C5.91955 9.37188 5.92478 9.20285 5.93241 9.03394C5.93977 8.87131 5.95082 8.70882 5.96026 8.5463C5.97394 8.54622 5.98762 8.54619 6.00134 8.54615ZM6.98675 9.0418C7.41194 9.01545 7.81135 8.99775 8.20899 8.96099C8.30382 8.95223 8.41388 8.90107 8.48146 8.83376C10.5671 6.75566 12.6485 4.67327 14.7296 2.5907C14.8078 2.51241 14.8773 2.42543 14.9284 2.36781C14.4909 1.92926 14.0684 1.50589 13.6358 1.07218C13.596 1.10653 13.5368 1.15167 13.4845 1.20369C13.1159 1.57038 12.7487 1.93854 12.3811 2.30617C10.6446 4.04242 8.90782 5.77834 7.17326 7.51651C7.11947 7.57041 7.05764 7.6454 7.05283 7.71425C7.02291 8.14439 7.00817 8.57558 6.98675 9.0418Z" fill="#F6A254"/>
</svg>
