<svg width="8" height="14" viewBox="0 0 8 14" fill="none" xmlns="http://www.w3.org/2000/svg">
<path d="M7.99397 0V2.4382H5.86361C5.70526 2.42452 5.54737 2.46882 5.42096 2.56238C5.29456 2.65594 5.20879 2.792 5.18051 2.94382C5.1707 3.01842 5.1707 3.09394 5.18051 3.16854C5.18051 3.7191 5.18051 4.29213 5.18051 4.85393H7.99397V7.10112H5.14577V13.9663H2.44809V7.14607H0.00512695V4.89888H2.43651C2.43651 4.8427 2.43651 4.79775 2.43651 4.75281C2.43651 4.21348 2.43651 3.62921 2.43651 3.13483C2.46657 2.5634 2.64602 2.00881 2.95795 1.52328C3.26989 1.03775 3.70405 0.637263 4.21953 0.359551C4.57567 0.16513 4.97032 0.046401 5.37733 0.011236H5.48154L7.99397 0Z" fill="white"/>
</svg>
