<svg width="13" height="16" viewBox="0 0 13 16" fill="none" xmlns="http://www.w3.org/2000/svg">
<g clip-path="url(#clip0)">
<path d="M12.997 8.00117C12.997 10.2327 12.9933 12.4642 12.9998 14.6957C13.0014 15.2748 12.649 15.752 12.1565 15.9204C12.0274 15.9674 11.8915 15.9933 11.7542 15.997C8.25101 16.0011 4.74787 16.0011 1.24473 15.997C0.6625 15.997 0.134312 15.5595 0.0299859 14.9882C0.013513 14.9046 0.00452331 14.8197 0.00312353 14.7345C0.00312353 11.3516 0.00208235 7.96899 0 4.58655C0 4.05 0.179291 3.60876 0.560361 3.23221C1.47212 2.33066 2.37544 1.41974 3.28095 0.513509C3.53615 0.257264 3.83444 0.0853921 4.19365 0.0282057C4.2829 0.012548 4.37324 0.00387596 4.46383 0.00226866C6.88436 0.000810351 9.30489 0.000810351 11.7254 0.00226866C12.2933 0.00226866 12.8115 0.384761 12.9564 0.945375C12.9848 1.06692 12.9979 1.19152 12.9954 1.31631C12.9979 3.01148 12.9985 4.70655 12.997 6.40152C12.997 6.93401 12.997 7.46723 12.997 8.00117ZM11.9975 8.00117C11.9975 7.05849 11.9975 6.1159 11.9975 5.17342C11.9975 3.87928 11.9975 2.58513 11.9975 1.29099C11.9991 1.24716 11.9917 1.20347 11.9759 1.16256C11.9184 1.03381 11.8069 0.998812 11.6748 0.998812C9.28552 0.998812 6.89613 0.998812 4.50663 0.998812C4.4116 0.997022 4.31723 1.01492 4.22945 1.05138C4.14166 1.08785 4.06237 1.14208 3.99656 1.21068C3.07074 2.13879 2.14409 3.06586 1.21661 3.99188C1.14687 4.05878 1.09183 4.13949 1.05499 4.22886C1.01815 4.31823 1.00033 4.41429 1.00265 4.51093C1.00453 5.10717 1.00265 5.70341 1.00265 6.29996C1.00265 9.10449 1.00203 11.9089 1.00078 14.7132C0.998829 14.7772 1.01908 14.8398 1.05809 14.8905C1.09709 14.9412 1.15245 14.9769 1.21474 14.9914C1.26336 15.0002 1.31287 15.003 1.36217 14.9998H7.6717H11.6929C11.89 14.9998 11.9972 14.8923 11.9972 14.6976C11.9974 12.4658 11.9975 10.234 11.9975 8.00243V8.00117Z" fill="#284885"/>
<path d="M6.00074 9.77888C6.00074 9.72513 6.00074 9.69013 6.00074 9.65388C6.00074 8.44328 6.00074 7.23258 6.00074 6.02177C6.00074 5.8199 6.08164 5.66209 6.25781 5.56303C6.3335 5.51978 6.41924 5.49724 6.50641 5.49767C6.59358 5.4981 6.6791 5.5215 6.75436 5.5655C6.82962 5.6095 6.89197 5.67255 6.93514 5.74831C6.97831 5.82408 7.00077 5.90988 7.00027 5.99708C7.00308 6.85613 7.00027 7.7158 7.00027 8.57484C7.00027 8.94463 7.00027 9.31431 7.00027 9.68389C7.00027 9.70888 7.00308 9.73388 7.00589 9.7792C7.04275 9.74607 7.06836 9.72576 7.0896 9.70326C7.441 9.35233 7.79052 8.99952 8.14379 8.65016C8.39898 8.39797 8.79723 8.46953 8.95278 8.79171C9.04649 8.98234 9.00089 9.20327 8.8344 9.37045C8.42668 9.77919 8.01854 10.1876 7.60998 10.5957C7.36197 10.8457 7.11022 11.0898 6.87033 11.3457C6.67636 11.5523 6.32808 11.5498 6.12912 11.3457C5.48255 10.6867 4.82848 10.0351 4.17598 9.38202C4.07446 9.28046 4.00606 9.16546 4.00137 9.01952C3.99739 8.9188 4.02368 8.8192 4.07686 8.73358C4.13003 8.64796 4.20764 8.58026 4.29967 8.53922C4.39082 8.49901 4.49198 8.48728 4.58991 8.50557C4.68784 8.52386 4.77796 8.57131 4.84847 8.64172C5.12959 8.91953 5.40789 9.20014 5.68745 9.47983C5.77022 9.56264 5.85268 9.64545 5.93733 9.72795C5.95076 9.74232 5.96763 9.75295 6.00074 9.77888Z" fill="#284885"/>
<path d="M6.50042 13.4997C5.5036 13.4997 4.50678 13.4997 3.50996 13.4997C3.44433 13.5005 3.37918 13.4884 3.31823 13.4641C3.25728 13.4397 3.20173 13.4035 3.15474 13.3577C3.10775 13.3119 3.07025 13.2572 3.04438 13.1968C3.0185 13.1365 3.00477 13.0716 3.00395 13.006C3.00312 12.9403 3.01524 12.8752 3.0396 12.8142C3.06395 12.7532 3.10008 12.6976 3.14591 12.6506C3.19173 12.6036 3.24637 12.5661 3.30669 12.5402C3.36701 12.5143 3.43183 12.5006 3.49746 12.4998C3.90352 12.4976 4.30958 12.4998 4.71564 12.4998H9.4784C9.72078 12.4998 9.90413 12.631 9.97473 12.8516C9.99817 12.9257 10.0039 13.0042 9.99155 13.0809C9.97916 13.1576 9.94898 13.2303 9.90342 13.2932C9.85786 13.3561 9.79819 13.4074 9.7292 13.4431C9.66022 13.4787 9.58384 13.4977 9.5062 13.4985C9.03267 13.5016 8.55883 13.4985 8.08499 13.4985H6.50042V13.4997Z" fill="#284885"/>
<path d="M5.00097 2.90838C5.00097 3.1765 5.00097 3.44462 5.00097 3.71274C4.9994 4.31304 4.65738 4.77834 4.08515 4.95115C3.97523 4.98244 3.86146 4.99811 3.74718 4.99771C3.16964 5.0024 2.59148 5.00084 2.01456 4.99959C1.72595 4.99959 1.50324 4.78084 1.50293 4.50179C1.50262 4.22273 1.72533 4.0018 2.01894 4.00023C2.58117 4.00023 3.14341 4.00023 3.70564 4.00023C3.90523 4.00023 4.00269 3.90305 4.00269 3.70461C4.00269 3.13994 4.00269 2.57495 4.00269 2.01027C4.00269 1.80871 4.09233 1.65434 4.271 1.55934C4.34589 1.51964 4.42969 1.49974 4.51443 1.50155C4.59917 1.50335 4.68205 1.5268 4.75519 1.56966C4.82832 1.61253 4.88929 1.67338 4.93231 1.74645C4.97533 1.81952 4.99896 1.90237 5.00097 1.98715C5.0044 2.14058 5.00097 2.29433 5.00097 2.44776C5.00097 2.6012 5.00097 2.75494 5.00097 2.90838Z" fill="#284885"/>
</g>
<defs>
<clipPath id="clip0">
<rect width="13" height="16" fill="white"/>
</clipPath>
</defs>
</svg>
