<svg width="21" height="21" viewBox="0 0 21 21" fill="none" xmlns="http://www.w3.org/2000/svg">
<g clip-path="url(#clip0)">
<path d="M21 1.72266V19.2773C20.8548 19.5813 20.7441 19.909 20.5566 20.1846C20.2543 20.6296 19.7925 20.8655 19.2773 21H1.72266C1.20791 20.8663 0.745254 20.6309 0.442969 20.1846C0.255938 19.9086 0.145195 19.5813 0 19.2773V1.72266C0.145195 1.41832 0.255938 1.09102 0.442969 0.815391C0.745254 0.369961 1.20791 0.133711 1.72266 0H19.2773C19.5813 0.144785 19.9086 0.255938 20.1842 0.442559C20.6309 0.744434 20.8659 1.2075 21 1.72266ZM19.6875 9.83473V4.65732C19.6875 3.75498 19.69 2.85264 19.6875 1.95029C19.6854 1.52004 19.4873 1.32398 19.0612 1.31168C19.0136 1.31168 18.9656 1.31168 18.918 1.31168H11.1673V9.83473H19.6875ZM9.83391 1.31291H8.416C6.27088 1.31291 4.12576 1.31291 1.98064 1.31291C1.51184 1.31291 1.3207 1.50773 1.31332 1.97162C1.31332 2.01961 1.31332 2.06719 1.31332 2.11518V9.82611H9.83391V1.31291ZM19.6875 11.1686H11.1698V19.6875H11.3445C13.8998 19.6875 16.4551 19.6875 19.0103 19.6875C19.4939 19.6875 19.6867 19.489 19.6871 18.9964C19.6871 17.534 19.6871 16.072 19.6871 14.6102L19.6875 11.1686ZM9.83555 11.1686H1.3125V11.3031C1.3125 13.872 1.3125 16.441 1.3125 19.0099C1.31207 19.085 1.31825 19.1599 1.33096 19.2339C1.37197 19.4656 1.50527 19.6174 1.74111 19.6596C1.8486 19.6774 1.95743 19.6857 2.06637 19.6846C4.58063 19.6846 7.09488 19.6846 9.60914 19.6846H9.83473L9.83555 11.1686Z" fill="white"/>
<path d="M15.4219 5.24918C15.9477 5.24918 16.4731 5.24918 16.9989 5.24918C17.43 5.24918 17.7229 5.52398 17.7192 5.91568C17.7159 6.29343 17.4193 6.56127 17.0002 6.56168C15.9284 6.56168 14.8567 6.56455 13.7853 6.56168C13.627 6.55978 13.4747 6.50069 13.3565 6.39532C13.2383 6.28994 13.1622 6.14538 13.1422 5.9883C13.1222 5.83122 13.1597 5.6722 13.2478 5.54059C13.3358 5.40897 13.4685 5.31363 13.6213 5.27215C13.6944 5.25637 13.7692 5.24962 13.844 5.25205C14.3694 5.25205 14.8952 5.25205 15.4206 5.25205L15.4219 5.24918Z" fill="white"/>
<path d="M4.59375 6.56291C4.1516 6.56291 3.74186 6.56291 3.33211 6.56291C2.92236 6.56291 2.625 6.28359 2.625 5.90174C2.62705 5.52685 2.91703 5.25328 3.3198 5.25041C3.72258 5.24754 4.12617 5.24795 4.52935 5.24631C4.55125 5.24193 4.57267 5.23548 4.59334 5.22703C4.59334 4.80744 4.59334 4.37924 4.59334 3.95144C4.59375 3.67992 4.71392 3.47484 4.95469 3.3518C5.38986 3.12949 5.89148 3.43383 5.90543 3.9293C5.91199 4.14791 5.90543 4.36693 5.90543 4.58555V5.24836H6.87053C6.99357 5.24836 7.11662 5.24385 7.23967 5.24836C7.40523 5.26127 7.55974 5.33648 7.67205 5.45881C7.78436 5.58113 7.84611 5.74149 7.84486 5.90756C7.84362 6.07362 7.77946 6.23303 7.66532 6.35366C7.55119 6.47428 7.39556 6.54715 7.22982 6.55758C6.79916 6.56414 6.3685 6.55758 5.90543 6.55758V6.75855C5.90543 7.12769 5.90912 7.49684 5.90543 7.86598C5.90654 8.03862 5.83957 8.20475 5.71903 8.32836C5.5985 8.45197 5.4341 8.52309 5.26148 8.52633C4.89234 8.53043 4.60154 8.24947 4.5958 7.86721C4.58883 7.44269 4.59375 7.01326 4.59375 6.56291Z" fill="white"/>
<path d="M15.4124 15.0933C14.8866 15.0933 14.3612 15.0933 13.8358 15.0933C13.419 15.0933 13.1258 14.8198 13.1254 14.4371C13.125 14.0544 13.4186 13.7808 13.8341 13.7808C14.8923 13.7792 15.9503 13.7792 17.0079 13.7808C17.4246 13.7808 17.7183 14.0552 17.7183 14.4371C17.7183 14.8189 17.4271 15.0913 17.0095 15.0933C16.4772 15.0954 15.9448 15.0933 15.4124 15.0933Z" fill="white"/>
<path d="M15.415 17.0621C14.8895 17.0621 14.3637 17.0621 13.8383 17.0621C13.4212 17.0621 13.1263 16.7889 13.1246 16.4091C13.123 16.0293 13.4187 15.75 13.8318 15.7496C14.8982 15.7496 15.9631 15.7496 17.0265 15.7496C17.4243 15.7496 17.7168 16.0293 17.7184 16.4025C17.72 16.7758 17.4313 17.0588 17.0326 17.0613C16.4933 17.0645 15.9551 17.0621 15.415 17.0621Z" fill="white"/>
<path d="M4.65897 15.4186C4.26768 15.0314 3.89731 14.6676 3.53063 14.3005C3.21973 13.9892 3.19841 13.5971 3.47116 13.3207C3.74391 13.0442 4.143 13.0602 4.45102 13.3686C4.82221 13.7378 5.18931 14.1151 5.57075 14.5027C5.97065 14.1024 6.35005 13.7234 6.73149 13.3408C6.91442 13.157 7.13099 13.0795 7.38446 13.1472C7.88403 13.2805 8.04071 13.8756 7.67157 14.2546C7.29423 14.6401 6.90663 15.0158 6.46653 15.4522C6.62608 15.5872 6.78194 15.7065 6.92304 15.8415C7.16913 16.0773 7.40907 16.3218 7.64901 16.565C7.94145 16.8619 7.95253 17.2623 7.67896 17.5305C7.40538 17.7987 7.01368 17.7827 6.72657 17.4965C6.34882 17.1212 5.97598 16.741 5.56624 16.3279C5.44688 16.4588 5.34147 16.5822 5.22827 16.6971C4.95511 16.9747 4.68153 17.2524 4.40139 17.5227C4.12987 17.7852 3.7394 17.7844 3.48018 17.5321C3.21481 17.2733 3.20825 16.8726 3.48018 16.5966C3.8604 16.2065 4.25087 15.8251 4.65897 15.4186Z" fill="white"/>
</g>
<defs>
<clipPath id="clip0">
<rect width="21" height="21" fill="white"/>
</clipPath>
</defs>
</svg>
