<svg width="16" height="16" viewBox="0 0 16 16" fill="none" xmlns="http://www.w3.org/2000/svg">
<path d="M15.0024 14.782L10.0787 9.74533C9.93892 9.6002 9.70779 9.6002 9.56266 9.73996C9.41753 9.87972 9.41752 10.1109 9.55728 10.256L14.481 15.2926C14.6208 15.4377 14.8519 15.4377 14.997 15.298C15.1422 15.1582 15.1422 14.9271 15.0024 14.782Z" fill="white"/>
<path d="M14.3463 15.427L9.4226 10.3904C9.20759 10.17 9.21297 9.82059 9.43335 9.60558C9.65374 9.39057 10.0031 9.39595 10.2181 9.61634L15.1419 14.6529C15.3569 14.8733 15.3515 15.2227 15.1311 15.4377C14.9107 15.6474 14.5614 15.642 14.3463 15.427ZM9.69137 10.127L14.6151 15.1636C14.685 15.2335 14.7979 15.2335 14.8677 15.169C14.9376 15.0991 14.9376 14.9862 14.8731 14.9163L9.94938 9.87972C9.8795 9.80984 9.76663 9.80984 9.69675 9.87435C9.62149 9.94423 9.62149 10.0571 9.69137 10.127Z" fill="white"/>
<path d="M5.92388 11.6589C2.76323 11.6589 0.188477 9.08415 0.188477 5.9235C0.188477 2.76285 2.76323 0.18811 5.92388 0.18811C9.08453 0.18811 11.6593 2.76285 11.6593 5.9235C11.6593 9.08415 9.08453 11.6589 5.92388 11.6589ZM5.92388 0.838515C3.11799 0.838515 0.833507 3.123 0.833507 5.92888C0.833507 8.73476 3.11799 11.0192 5.92388 11.0192C8.72976 11.0192 11.0142 8.73476 11.0142 5.92888C11.0142 3.123 8.72976 0.838515 5.92388 0.838515Z" fill="white"/>
<path d="M5.92353 11.8471C2.65538 11.8471 0 9.19168 0 5.92353C0 2.65537 2.65538 0 5.92353 0C9.19169 0 11.8471 2.65537 11.8471 5.92353C11.8471 9.19168 9.18631 11.8471 5.92353 11.8471ZM5.92353 0.381642C2.86501 0.381642 0.376268 2.87038 0.376268 5.9289C0.376268 8.98742 2.86501 11.4762 5.92353 11.4762C8.98205 11.4762 11.4708 8.98742 11.4708 5.9289C11.4708 2.87038 8.98205 0.381642 5.92353 0.381642ZM5.92353 11.202C3.01552 11.202 0.64503 8.83692 0.64503 5.92353C0.64503 3.01014 3.01015 0.64503 5.92353 0.64503C8.83692 0.64503 11.202 3.01014 11.202 5.92353C11.202 8.83692 8.83155 11.202 5.92353 11.202ZM5.92353 1.02667C3.21978 1.02667 1.0213 3.22515 1.0213 5.9289C1.0213 8.63265 3.21978 10.8311 5.92353 10.8311C8.62729 10.8311 10.8258 8.63265 10.8258 5.9289C10.8258 3.22515 8.62729 1.02667 5.92353 1.02667Z" fill="white"/>
</svg>
