<svg width="460" height="337" viewBox="0 0 460 337" fill="none" xmlns="http://www.w3.org/2000/svg">
<rect width="460" height="337" fill="#F2F2F2"/>
<path d="M256 226.904V199.305L291 136.904L284.25 170.123L256 226.904Z" fill="white"/>
<path d="M228.567 143.034L207.289 138.318L236.6 112.039L215.605 105L170 153.744L198.016 166.883L228.567 143.034Z" fill="white"/>
<path d="M257.593 119.079L233.532 135.161L260.076 142.733L203.956 169.649L251.37 191.867L287.134 128.973L257.593 119.079Z" fill="white"/>
<path d="M195.622 174.614L195.25 173.603L195.338 173.639L170 161.812L185.338 193.64L207.307 205.875L195.622 174.614Z" fill="white"/>
<path d="M201.881 176.706L202.289 178.089L212.662 208.854L248.232 228.624V198.374L201.881 176.706Z" fill="white"/>
</svg>
