<svg width="857" height="796" viewBox="0 0 857 796" fill="none" xmlns="http://www.w3.org/2000/svg">
<path d="M739.182 -624.381L414.032 -304.846L413.391 -304.216L414.265 -304.004L649.768 -246.783L311.259 42.8626L0.790416 -116.739L506.951 -709.734L739.182 -624.381Z" stroke="#D7D7D7" stroke-opacity="0.4"/>
<path d="M1300.97 -418.04L904.019 347.11L378.423 77.149L1001.21 -250.267L1002.28 -250.827L1001.13 -251.187L707.102 -343.117L973.475 -538.271L1300.97 -418.04Z" stroke="#D7D7D7" stroke-opacity="0.4"/>
<path d="M284.254 137.79L284.255 137.792L413.66 517.263L170.837 369.036L1.02327 -17.225L280.152 125.584L284.254 137.79Z" stroke="#D7D7D7" stroke-opacity="0.4"/>
<path d="M359.298 179.825L355.062 164.076L868.858 427.355V794.628L474.51 554.368L359.3 179.834L359.298 179.825Z" stroke="#D7D7D7" stroke-opacity="0.4"/>
</svg>
