<svg width="18" height="18" viewBox="0 0 18 18" fill="none" xmlns="http://www.w3.org/2000/svg">
<path d="M17.0267 8.51432C17.0267 9.744 17.0267 10.9737 17.0267 12.2034C17.0183 13.1667 16.7183 14.1049 16.1664 14.8946C15.6145 15.6842 14.8365 16.2882 13.9347 16.6272C13.1676 16.9135 12.3525 17.0495 11.534 17.0277C9.40119 17.0277 7.26838 17.0277 5.13558 17.0277C4.10347 17.0513 3.08848 16.7613 2.22465 16.196C1.18092 15.5498 0.430405 14.5219 0.132663 13.331C0.0471082 12.9672 0.00260945 12.5949 0 12.2212C0 9.79758 0 7.37393 0 4.93753C0 3.68744 0.349515 2.56491 1.23989 1.65923C2.08101 0.751357 3.22343 0.180144 4.4544 0.0519731C5.21977 -0.0169095 5.98513 0.00350016 6.73518 0.000948959C8.36285 0.000948959 9.99307 0.000948959 11.6233 0.000948959C12.728 0.000948959 13.7893 0.179533 14.7332 0.791823C15.7801 1.41704 16.5451 2.42243 16.8686 3.59815C16.9663 3.99909 17.0168 4.41007 17.0191 4.82273C17.0369 6.05241 17.0191 7.28209 17.0191 8.51177L17.0267 8.51432ZM1.2756 8.51432C1.2756 9.75676 1.2756 10.9966 1.2756 12.2391C1.2756 13.6805 2.04096 14.6576 3.26554 15.326C3.86096 15.6264 4.5227 15.7712 5.18915 15.747C7.38574 15.747 9.58233 15.747 11.7789 15.747C12.5422 15.7602 13.2949 15.5671 13.9576 15.1883C15.1108 14.5199 15.7435 13.5351 15.7435 12.1957C15.7588 9.70829 15.7639 7.22086 15.7435 4.73088C15.7435 3.25884 14.9092 2.28683 13.6515 1.64137C13.0857 1.37294 12.4634 1.24516 11.8376 1.2689C9.65376 1.2689 7.46993 1.2689 5.28355 1.2689C4.58368 1.25056 3.88997 1.40384 3.26299 1.71536C2.04096 2.35061 1.30367 3.34048 1.2756 4.7564C1.24499 6.00904 1.2756 7.26168 1.2756 8.51432Z" fill="url(#paint0_linear)"/>
<path d="M8.52097 12.1518C7.74266 12.1402 6.98515 11.8987 6.34372 11.4578C5.70229 11.0168 5.20558 10.396 4.91607 9.67342C4.62656 8.95086 4.55718 8.15883 4.71665 7.39695C4.87612 6.63506 5.25731 5.93735 5.8123 5.39155C6.36728 4.84576 7.07127 4.47626 7.83571 4.32954C8.60015 4.18282 9.39091 4.26542 10.1085 4.56695C10.8261 4.86848 11.4386 5.37549 11.8688 6.02419C12.299 6.6729 12.5278 7.43433 12.5264 8.21272C12.5142 9.26517 12.0863 10.2701 11.3358 11.0081C10.5854 11.7461 9.57347 12.1572 8.52097 12.1518ZM5.79883 8.20507C5.7887 8.74703 5.94015 9.27974 6.23387 9.73531C6.5276 10.1909 6.95031 10.5487 7.44813 10.7631C7.94596 10.9776 8.49636 11.039 9.02921 10.9395C9.56205 10.84 10.0532 10.5841 10.4401 10.2045C10.827 9.82481 11.0921 9.33857 11.2016 8.80769C11.3112 8.27682 11.2602 7.72536 11.0551 7.22358C10.8501 6.72179 10.5003 6.29241 10.0504 5.99014C9.60043 5.68787 9.07067 5.5264 8.52862 5.5263C7.81259 5.52354 7.12436 5.80326 6.6133 6.30478C6.10223 6.80629 5.80957 7.48912 5.79883 8.20507Z" fill="url(#paint1_linear)"/>
<path d="M13.83 3.92686C13.824 4.09164 13.7696 4.25101 13.6735 4.38505C13.5775 4.5191 13.4441 4.62189 13.29 4.68059C13.1359 4.73929 12.9679 4.75131 12.8071 4.71513C12.6462 4.67895 12.4995 4.59619 12.3854 4.47717C12.2713 4.35816 12.1947 4.20816 12.1653 4.0459C12.1359 3.88365 12.1549 3.71633 12.22 3.56483C12.2852 3.41333 12.3934 3.28437 12.5314 3.19403C12.6693 3.1037 12.8309 3.056 12.9957 3.0569C13.2204 3.06549 13.433 3.16101 13.5887 3.32331C13.7443 3.48561 13.8308 3.702 13.83 3.92686Z" fill="url(#paint2_linear)"/>
<defs>
<linearGradient id="paint0_linear" x1="8.51351" y1="0" x2="8.51351" y2="17.03" gradientUnits="userSpaceOnUse">
<stop stop-color="#723FA5"/>
<stop offset="0.494792" stop-color="#E13122"/>
<stop offset="1" stop-color="#F3CF48"/>
</linearGradient>
<linearGradient id="paint1_linear" x1="8.57965" y1="4.25879" x2="8.57965" y2="12.1518" gradientUnits="userSpaceOnUse">
<stop stop-color="#723FA5"/>
<stop offset="0.494792" stop-color="#E13122"/>
<stop offset="1" stop-color="#F3CF48"/>
</linearGradient>
<linearGradient id="paint2_linear" x1="12.9909" y1="3.05688" x2="12.9909" y2="4.73558" gradientUnits="userSpaceOnUse">
<stop stop-color="#723FA5"/>
<stop offset="0.494792" stop-color="#E13122"/>
<stop offset="1" stop-color="#F3CF48"/>
</linearGradient>
</defs>
</svg>
