<svg width="21" height="21" viewBox="0 0 21 21" fill="none" xmlns="http://www.w3.org/2000/svg">
<g clip-path="url(#clip0)">
<path d="M15.9552 21.0002C15.668 20.9522 15.3781 20.9124 15.0938 20.8554C13.6583 20.5683 12.3384 19.9895 11.0788 19.2656C8.45422 17.7583 6.22543 15.7822 4.2657 13.4931C2.96346 11.9718 1.83881 10.332 1.00701 8.50352C0.518925 7.43055 0.145683 6.32231 0.0333003 5.14024C0.0259999 5.10778 0.0149906 5.07626 0.000488281 5.04631V4.10295C0.0140234 4.03651 0.03125 3.97129 0.0415039 3.90444C0.128047 3.24819 0.321231 2.62803 0.770352 2.13297C1.24285 1.61289 1.74981 1.12276 2.25717 0.635901C2.5574 0.348791 2.93105 0.175295 3.33711 0.0789081C3.44252 0.0538886 3.54752 0.0272284 3.65252 0.00138855H4.26775C4.39326 0.0309198 4.51959 0.0567597 4.64387 0.0908027C5.09449 0.212812 5.50485 0.451808 5.83332 0.783557C6.43953 1.391 7.05477 1.9968 7.6577 2.61039C8.67365 3.64276 8.67652 5.1751 7.75326 6.28704C6.86938 7.35344 6.93582 8.846 7.90953 9.83038C8.71713 10.647 9.53293 11.4554 10.3446 12.2671C10.393 12.3155 10.4431 12.3627 10.4878 12.414C10.7285 12.6929 10.7187 13.0702 10.466 13.3216C10.2199 13.5677 9.81225 13.5886 9.55877 13.3368C8.62689 12.4127 7.66754 11.5128 6.78939 10.54C5.49494 9.1044 5.50848 6.92155 6.75084 5.44581C7.3025 4.78956 7.27092 4.0845 6.66225 3.47459C6.10197 2.9135 5.54143 2.35295 4.98061 1.79295C4.33748 1.15065 3.58238 1.14655 2.94623 1.78885C2.62467 2.11328 2.28752 2.42746 2.00287 2.78348C1.45736 3.46967 1.34662 4.28424 1.4184 5.12999C1.54145 6.62706 2.12797 7.96786 2.85394 9.25452C3.88836 11.0896 5.21111 12.7031 6.69219 14.1916C8.21182 15.719 9.86352 17.0803 11.7445 18.1463C12.8425 18.7689 13.9885 19.2763 15.2398 19.5023C16.0647 19.6516 16.892 19.6815 17.6713 19.3157C17.9805 19.1709 18.2619 18.9527 18.5268 18.7324C18.7918 18.5122 19.0248 18.2456 19.2705 17.9978C19.8221 17.4417 19.8291 16.6501 19.2799 16.0943C18.6783 15.4864 18.0743 14.8821 17.4678 14.2814C16.9293 13.7482 16.1799 13.7281 15.6024 14.226C15.2694 14.5131 14.8769 14.5131 14.6221 14.2219C14.3674 13.9307 14.4171 13.5353 14.7358 13.2417C15.7591 12.3036 17.3448 12.3295 18.3595 13.3143C18.9973 13.9328 19.6203 14.5665 20.2462 15.1985C20.6257 15.5788 20.8763 16.0686 20.9628 16.5988C20.973 16.6449 20.9859 16.6903 21.0013 16.735V17.3502C20.987 17.3807 20.9758 17.4126 20.9677 17.4453C20.8746 18.0487 20.5899 18.5483 20.158 18.9732C19.8119 19.3128 19.4687 19.6555 19.1285 20.0014C18.7056 20.4337 18.1673 20.7351 17.5777 20.8697C17.3538 20.9231 17.1266 20.9571 16.8985 21.0002H15.9552Z" fill="white"/>
<path d="M12.5155 14.2591C12.5155 14.3444 12.4986 14.429 12.4657 14.5078C12.4329 14.5865 12.3848 14.6581 12.3243 14.7182C12.2637 14.7784 12.1918 14.826 12.1128 14.8582C12.0338 14.8905 11.9492 14.9069 11.8638 14.9063C11.7767 14.9062 11.6905 14.8888 11.6101 14.8553C11.5297 14.8218 11.4568 14.7728 11.3953 14.711C11.3339 14.6492 11.2853 14.576 11.2522 14.4954C11.2192 14.4148 11.2023 14.3285 11.2026 14.2414C11.2071 14.0695 11.2779 13.9059 11.4002 13.7849C11.5225 13.664 11.6869 13.5951 11.8589 13.5926C11.9461 13.5919 12.0326 13.6087 12.1133 13.6421C12.1939 13.6755 12.267 13.7247 12.3282 13.7869C12.3895 13.8491 12.4376 13.9229 12.4698 14.004C12.502 14.0851 12.5175 14.1718 12.5155 14.2591Z" fill="white"/>
</g>
<defs>
<clipPath id="clip0">
<rect width="21" height="21" fill="white"/>
</clipPath>
</defs>
</svg>
