<svg width="36" height="51" viewBox="0 0 36 51" fill="none" xmlns="http://www.w3.org/2000/svg">
<path d="M18.0011 26.2889C13.5114 26.2889 9.86792 22.6174 9.86792 18.0879C9.86792 13.5543 13.5114 9.88487 18.0011 9.88487C22.4907 9.88487 26.1342 13.5564 26.1342 18.0879C26.1342 22.6152 22.4907 26.2889 18.0011 26.2889ZM18.0011 0C8.05891 0 0 8.12662 0 18.1538C0 27.6246 8.15222 39.841 13.5962 45.7889C15.63 48.008 17.9989 51 17.9989 51C17.9989 51 20.5439 47.991 22.7261 45.7061C28.1659 40.0067 36 28.5631 36 18.1538C36 8.12662 27.9411 0 18.0011 0Z" fill="#2E508F"/>
</svg>
