<svg width="14" height="11" viewBox="0 0 14 11" fill="none" xmlns="http://www.w3.org/2000/svg">
<path d="M7.03046 10.9995C5.08679 10.9898 3.15252 10.7276 1.27568 10.2194C0.787976 10.0886 0.51368 9.75313 0.408575 9.26592C0.0710457 7.7233 -0.0582931 6.14197 0.0240481 4.56462C0.0757149 3.60032 0.208423 2.64214 0.420752 1.70033C0.529702 1.21699 0.820661 0.911521 1.30228 0.782307C2.58956 0.434081 3.90444 0.198726 5.23215 0.0788836C6.59437 -0.0394983 7.9648 -0.0246059 9.32416 0.123351C10.5119 0.250471 11.6871 0.476813 12.8375 0.80003C13.3774 0.951477 13.6036 1.35942 13.6921 1.89013C13.9436 3.39912 14.058 4.91907 13.9686 6.44385C13.9122 7.40538 13.7763 8.36336 13.6482 9.31941C13.5841 9.79599 13.2758 10.0928 12.815 10.2162C10.9285 10.7268 8.98416 10.9901 7.03046 10.9995ZM5.49459 5.4994C5.49459 5.96642 5.49459 6.43343 5.49459 6.90045C5.49459 7.19045 5.49235 7.48046 5.49459 7.77046C5.49651 7.92352 5.54971 8.05531 5.69262 8.132C5.82592 8.20322 5.93744 8.14296 6.04863 8.06917C7.16889 7.32976 8.28904 6.59111 9.40908 5.85321C9.70837 5.65568 9.70869 5.33539 9.411 5.13915C9.02647 4.8862 8.64195 4.63583 8.25742 4.38417C7.51592 3.89847 6.77378 3.41287 6.03101 2.92738C5.8192 2.78914 5.61443 2.8407 5.53368 3.05627C5.5068 3.13745 5.49422 3.22272 5.49651 3.30825C5.49363 4.03939 5.49491 4.76891 5.49459 5.4994Z" fill="#E83323"/>
</svg>
