<svg width="327" height="59" viewBox="0 0 327 59" fill="none" xmlns="http://www.w3.org/2000/svg">
<path d="M38.9123 58.7515V45.1505L15.9497 34.22L21.287 49.4358L38.9123 58.7515Z" fill="#31579C"/>
<path d="M41.2706 44.1568V57.8821L55.2964 30.8663L58.958 13.4147L41.2706 44.1568Z" fill="#31579C"/>
<path d="M13.0949 32.8537L0 26.5811L8.00588 42.3558L18.4942 47.9453L13.0949 32.8537Z" fill="#31579C"/>
<path d="M31.5271 14.5947L45.1184 18.0726L16.8806 31.7979L40.0294 42.48L57.903 11.4894L42.5739 6.45892L31.5271 14.5947Z" fill="#DD9222"/>
<path d="M28.6722 18.4453L18.3701 16.3958L32.7062 3.22947L22.8385 0L0.558563 24.2211L14.0258 30.4316L28.6722 18.4453Z" fill="#DD9222"/>
<path d="M76.149 50.9263C74.3492 50.9263 72.8597 50.6779 71.7426 50.1811C70.6255 49.6842 69.7567 48.939 69.1361 48.0695C68.5155 47.1379 68.1431 46.0821 67.9569 44.84C67.7707 43.5979 67.6466 42.1695 67.6466 40.679H72.9218C72.9218 43.039 73.2321 44.7158 73.7286 45.7095C74.2251 46.6411 75.0939 47.1379 76.211 47.1379C76.9558 47.1379 77.5143 46.9516 78.0108 46.579C78.4452 46.2063 78.8176 45.7095 79.1279 45.0263C79.3762 44.3432 79.5623 43.4737 79.6865 42.4179C79.8106 41.3621 79.8726 40.12 79.8726 38.7537H73.7907V34.1579H79.8726C79.8106 31.5495 79.5003 29.6242 79.0038 28.32C78.5073 27.0779 77.5764 26.4569 76.2731 26.4569C75.2181 26.4569 74.4733 26.8295 73.9768 27.6369C73.4803 28.4442 73.2321 29.6863 73.17 31.4874H67.8949C67.8949 29.9969 68.081 28.7548 68.3913 27.5748C68.7016 26.4569 69.1981 25.5253 69.8187 24.7179C70.5014 23.9726 71.3703 23.4137 72.4253 22.979C73.4803 22.6063 74.7836 22.3579 76.3352 22.3579C78.5073 22.3579 80.183 22.7926 81.4242 23.6C82.6654 24.4074 83.5343 25.5253 84.1549 26.8916C84.7755 28.2579 85.0858 29.8105 85.272 31.4874C85.3961 33.2263 85.4581 34.9653 85.4581 36.7042C85.4581 38.5053 85.3961 40.1821 85.272 41.9211C85.1478 43.5979 84.7755 45.0884 84.1549 46.4548C83.5343 47.759 82.6033 48.8148 81.4242 49.6221C79.9968 50.4916 78.3211 50.9263 76.149 50.9263Z" fill="#31579C"/>
<path d="M89.4301 50.74C89.0577 50.74 88.6853 50.74 88.1888 50.6779C87.6923 50.6158 87.32 50.5537 87.1338 50.5537V45.8337C87.2579 45.8337 87.382 45.8958 87.5682 45.8958C87.7544 45.8958 87.8165 45.8958 87.8785 45.8958C88.313 45.8958 88.6853 45.8337 89.0577 45.7716C89.4301 45.7095 89.7404 45.461 90.0507 45.0263C90.361 44.5916 90.6092 43.9084 90.7954 42.9768C90.9816 42.0453 91.1678 40.741 91.3539 39.0642C91.4781 37.3874 91.6022 35.2137 91.6643 32.6053C91.7263 29.9968 91.7884 26.7674 91.7884 22.9789H107.117V50.4916H101.656V27.5126H96.8153C96.8153 30.7421 96.7533 33.5989 96.6912 35.9589C96.6291 38.381 96.443 40.4305 96.2568 42.1695C96.0706 43.9084 95.7603 45.2747 95.3879 46.3926C95.0156 47.5105 94.5811 48.38 94.0226 49.001C93.464 49.6221 92.7814 50.0568 92.0366 50.3053C91.2919 50.6158 90.423 50.74 89.4301 50.74Z" fill="#31579C"/>
<path d="M113.137 22.9789H126.977V27.5126H118.164V33.9716H126.481V38.5053H118.164V45.9579H127.349V50.4916H113.199V22.9789H113.137Z" fill="#31579C"/>
<path d="M132.004 22.9789H137.403V33.9716H137.465L144.354 22.9789H150.25L142.927 34.7789L151.057 50.4916H144.975L139.451 39.1884L137.465 42.2937V50.4295H132.066V22.9789H132.004Z" fill="#31579C"/>
<path d="M158.69 27.5126H152.794V22.9789H170.047V27.5126H164.152V50.4916H158.752V27.5126H158.69Z" fill="#31579C"/>
<path d="M173.461 22.9789H182.956C184.321 22.9789 185.501 23.2274 186.432 23.6621C187.362 24.1589 188.107 24.78 188.728 25.5253C189.286 26.2705 189.721 27.2021 189.969 28.1337C190.217 29.1274 190.341 30.121 190.341 31.1768C190.341 32.6053 190.155 33.8474 189.721 34.9032C189.286 35.9589 188.728 36.7663 187.983 37.4495C187.238 38.1326 186.37 38.6295 185.314 38.94C184.259 39.2505 183.08 39.4368 181.777 39.4368H178.86V50.4295H173.461V22.9789V22.9789ZM181.281 35.4C182.336 35.4 183.204 35.0895 183.887 34.4063C184.57 33.7232 184.88 32.7295 184.88 31.301C184.88 29.9347 184.57 28.8789 184.011 28.1337C183.453 27.3884 182.46 27.0779 181.094 27.0779H178.86V35.4H181.281Z" fill="#31579C"/>
<path d="M202.754 50.9263C200.706 50.9263 199.092 50.6158 197.913 49.9326C196.734 49.2495 195.803 48.3179 195.12 47.0137C194.5 45.7716 194.065 44.2811 193.879 42.5421C193.693 40.8032 193.569 38.8779 193.569 36.7663C193.569 34.7169 193.693 32.7916 193.879 30.9905C194.065 29.2516 194.5 27.699 195.12 26.4569C195.741 25.2147 196.672 24.2211 197.913 23.5379C199.154 22.8547 200.768 22.4821 202.754 22.4821C204.802 22.4821 206.415 22.8547 207.594 23.5379C208.774 24.2211 209.704 25.2147 210.387 26.4569C211.008 27.699 211.442 29.2516 211.628 30.9905C211.815 32.7295 211.939 34.6548 211.939 36.7663C211.939 38.8779 211.815 40.8032 211.628 42.5421C211.442 44.2811 211.008 45.7716 210.387 47.0137C209.767 48.2558 208.836 49.2495 207.594 49.9326C206.353 50.6158 204.74 50.9263 202.754 50.9263ZM202.754 46.9516C203.56 46.9516 204.181 46.7653 204.678 46.3926C205.174 46.02 205.546 45.399 205.795 44.5916C206.043 43.7842 206.229 42.7284 206.353 41.4242C206.415 40.12 206.477 38.5674 206.477 36.7042C206.477 34.8411 206.415 33.2884 206.353 31.9842C206.291 30.68 206.105 29.6242 205.795 28.8169C205.546 28.0095 205.174 27.3884 204.678 27.0158C204.181 26.6432 203.56 26.4569 202.754 26.4569C201.947 26.4569 201.326 26.6432 200.83 27.0158C200.333 27.3884 199.961 28.0095 199.713 28.8169C199.464 29.6242 199.278 30.68 199.154 31.9842C199.092 33.2884 199.03 34.8411 199.03 36.7042C199.03 38.5674 199.092 40.12 199.154 41.4242C199.216 42.7284 199.402 43.7842 199.713 44.5916C199.961 45.399 200.333 46.02 200.83 46.3926C201.264 46.7653 201.947 46.9516 202.754 46.9516Z" fill="#31579C"/>
<path d="M224.537 22.979H239.99V28.6926H230.991V33.599H233.908C236.453 33.599 238.377 34.2821 239.68 35.6484C240.983 37.0148 241.604 39.1263 241.604 41.9211C241.604 43.5979 241.356 45.0263 240.921 46.1442C240.487 47.2621 239.866 48.1316 239.121 48.7526C238.377 49.4358 237.57 49.8705 236.639 50.119C235.708 50.3674 234.777 50.4916 233.784 50.4916H224.537V22.979ZM232.233 45.2748C233.288 45.2748 233.97 45.0263 234.405 44.5295C234.839 44.0326 235.025 43.1632 235.025 41.9832C235.025 40.679 234.777 39.8095 234.281 39.3748C233.784 38.94 233.102 38.7537 232.233 38.7537H230.991V45.2748H232.233ZM244.645 22.979H258.981V28.8169H250.975V33.5369H258.485V39.1884H250.975V44.6537H259.291V50.4916H244.645V22.979ZM265.808 29.0653H260.967V22.979H277.227V29.0653H272.324V50.4916H265.808V29.0653ZM287.343 50.9263C285.667 50.9263 284.302 50.6779 283.123 50.1811C282.006 49.6842 281.075 48.8769 280.33 47.759C279.647 46.6411 279.151 45.1505 278.841 43.3495C278.53 41.5484 278.406 39.3748 278.406 36.7663C278.406 34.22 278.53 31.9842 278.841 30.1832C279.151 28.3821 279.647 26.8916 280.33 25.7737C281.013 24.6558 281.944 23.7863 283.123 23.2895C284.24 22.7926 285.667 22.4821 287.343 22.4821C289.019 22.4821 290.384 22.7305 291.563 23.2895C292.68 23.7863 293.611 24.6558 294.356 25.7737C295.039 26.8916 295.535 28.3821 295.845 30.1832C296.156 31.9842 296.28 34.1579 296.28 36.7663C296.28 39.3748 296.156 41.5484 295.845 43.3495C295.535 45.1505 295.039 46.579 294.356 47.759C293.673 48.8769 292.742 49.6842 291.563 50.1811C290.384 50.6779 288.957 50.9263 287.343 50.9263ZM287.343 46.1442C287.839 46.1442 288.212 46.02 288.522 45.7095C288.832 45.399 289.019 44.9021 289.205 44.219C289.329 43.4737 289.453 42.5421 289.515 41.3C289.577 40.0579 289.577 38.5674 289.577 36.7042C289.577 34.8411 289.577 33.3505 289.515 32.1084C289.453 30.8663 289.391 29.9347 289.205 29.1895C289.081 28.4442 288.832 27.9474 288.522 27.699C288.212 27.3884 287.839 27.2642 287.343 27.2642C286.846 27.2642 286.474 27.3884 286.164 27.699C285.853 28.0095 285.667 28.5063 285.481 29.1895C285.357 29.9347 285.233 30.8663 285.171 32.1084C285.109 33.3505 285.109 34.8411 285.109 36.7042C285.109 38.5674 285.109 40.0579 285.171 41.3C285.233 42.5421 285.295 43.4737 285.481 44.219C285.605 44.9642 285.853 45.4611 286.164 45.7095C286.412 46.02 286.846 46.1442 287.343 46.1442ZM299.693 22.979H306.085V33.04H309.995V22.979H316.388V50.4916H309.995V39.1884H306.085V50.4916H299.693V22.979Z" stroke="#31579C" stroke-width="4.252" stroke-miterlimit="10"/>
<path d="M224.537 22.979H239.99V28.6926H230.991V33.599H233.908C236.453 33.599 238.377 34.2821 239.68 35.6484C240.983 37.0148 241.604 39.1263 241.604 41.9211C241.604 43.5979 241.356 45.0263 240.921 46.1442C240.487 47.2621 239.866 48.1316 239.121 48.7526C238.377 49.4358 237.57 49.8705 236.639 50.119C235.708 50.3674 234.777 50.4916 233.784 50.4916H224.537V22.979ZM232.233 45.2748C233.288 45.2748 233.97 45.0263 234.405 44.5295C234.839 44.0326 235.025 43.1632 235.025 41.9832C235.025 40.679 234.777 39.8095 234.281 39.3748C233.784 38.94 233.102 38.7537 232.233 38.7537H230.991V45.2748H232.233ZM244.645 22.979H258.981V28.8169H250.975V33.5369H258.485V39.1884H250.975V44.6537H259.291V50.4916H244.645V22.979ZM265.808 29.0653H260.967V22.979H277.227V29.0653H272.324V50.4916H265.808V29.0653ZM287.343 50.9263C285.667 50.9263 284.302 50.6779 283.123 50.1811C282.006 49.6842 281.075 48.8769 280.33 47.759C279.647 46.6411 279.151 45.1505 278.841 43.3495C278.53 41.5484 278.406 39.3748 278.406 36.7663C278.406 34.22 278.53 31.9842 278.841 30.1832C279.151 28.3821 279.647 26.8916 280.33 25.7737C281.013 24.6558 281.944 23.7863 283.123 23.2895C284.24 22.7926 285.667 22.4821 287.343 22.4821C289.019 22.4821 290.384 22.7305 291.563 23.2895C292.68 23.7863 293.611 24.6558 294.356 25.7737C295.039 26.8916 295.535 28.3821 295.845 30.1832C296.156 31.9842 296.28 34.1579 296.28 36.7663C296.28 39.3748 296.156 41.5484 295.845 43.3495C295.535 45.1505 295.039 46.579 294.356 47.759C293.673 48.8769 292.742 49.6842 291.563 50.1811C290.384 50.6779 288.957 50.9263 287.343 50.9263ZM287.343 46.1442C287.839 46.1442 288.212 46.02 288.522 45.7095C288.832 45.399 289.019 44.9021 289.205 44.219C289.329 43.4737 289.453 42.5421 289.515 41.3C289.577 40.0579 289.577 38.5674 289.577 36.7042C289.577 34.8411 289.577 33.3505 289.515 32.1084C289.453 30.8663 289.391 29.9347 289.205 29.1895C289.081 28.4442 288.832 27.9474 288.522 27.699C288.212 27.3884 287.839 27.2642 287.343 27.2642C286.846 27.2642 286.474 27.3884 286.164 27.699C285.853 28.0095 285.667 28.5063 285.481 29.1895C285.357 29.9347 285.233 30.8663 285.171 32.1084C285.109 33.3505 285.109 34.8411 285.109 36.7042C285.109 38.5674 285.109 40.0579 285.171 41.3C285.233 42.5421 285.295 43.4737 285.481 44.219C285.605 44.9642 285.853 45.4611 286.164 45.7095C286.412 46.02 286.846 46.1442 287.343 46.1442ZM299.693 22.979H306.085V33.04H309.995V22.979H316.388V50.4916H309.995V39.1884H306.085V50.4916H299.693V22.979Z" fill="white"/>
<path d="M197.478 9.3158C197.23 9.3779 197.044 9.3779 196.734 9.44001C196.485 9.44001 196.237 9.50212 195.989 9.50212C194.872 9.50212 194.065 9.25369 193.569 8.75685C193.072 8.26001 192.824 7.51475 192.824 6.45896V2.54633H194.996V6.27264C194.996 6.58317 195.058 6.83159 195.12 7.0179C195.182 7.20422 195.306 7.32843 195.43 7.45264C195.555 7.57685 195.679 7.63896 195.865 7.63896C196.051 7.70106 196.237 7.70106 196.423 7.70106C196.548 7.70106 196.734 7.70106 196.92 7.70106C197.106 7.70106 197.292 7.63896 197.478 7.63896V2.54633H199.651V13.6011H197.478V9.3158Z" fill="#31579C"/>
<path d="M204.615 13.7874C203.871 13.7874 203.25 13.6632 202.816 13.4148C202.381 13.1663 202.071 12.7937 201.885 12.359C201.699 11.9242 201.574 11.4895 201.512 10.9305C201.45 10.3716 201.45 9.87476 201.45 9.37791C201.45 8.81897 201.512 8.26002 201.574 7.76318C201.637 7.26634 201.823 6.76949 202.009 6.39686C202.195 6.02423 202.567 5.6516 203.002 5.46528C203.436 5.21686 203.995 5.09265 204.678 5.09265C205.298 5.09265 205.795 5.21686 206.167 5.40318C206.539 5.58949 206.85 5.90002 207.098 6.27265C207.346 6.64528 207.47 7.08002 207.532 7.63897C207.594 8.13581 207.656 8.75686 207.656 9.37791V9.87476H203.56V10.5579C203.56 10.8063 203.56 11.0548 203.623 11.3032C203.685 11.5516 203.747 11.7379 203.809 11.9242C203.871 12.1105 203.995 12.2348 204.119 12.359C204.243 12.4832 204.429 12.5453 204.615 12.5453C204.988 12.5453 205.236 12.4211 205.36 12.1727C205.546 11.9242 205.608 11.5516 205.671 10.9927H207.532C207.47 11.9863 207.222 12.7316 206.788 13.2284C206.353 13.539 205.608 13.7874 204.615 13.7874ZM205.671 8.50844C205.671 8.19791 205.671 7.88739 205.608 7.63897C205.608 7.39055 205.546 7.20423 205.422 7.01791C205.36 6.8316 205.236 6.70739 205.112 6.64528C204.988 6.58318 204.802 6.52107 204.615 6.52107C204.429 6.52107 204.243 6.58318 204.119 6.64528C203.995 6.70739 203.871 6.8937 203.809 7.01791C203.747 7.20423 203.685 7.32844 203.623 7.57686C203.56 7.82528 203.56 7.94949 203.56 8.19791V8.50844H205.671Z" fill="#31579C"/>
<path d="M209.891 13.7253C209.704 13.7253 209.518 13.7253 209.332 13.6632C209.146 13.6632 208.96 13.6011 208.836 13.6011V11.9864C208.898 11.9864 208.96 11.9864 209.022 11.9864C209.084 11.9864 209.146 11.9864 209.208 11.9864C209.332 11.9864 209.456 11.9864 209.58 11.9243C209.704 11.8622 209.829 11.8 209.891 11.6137C209.953 11.4895 210.077 11.2411 210.139 10.9306C210.201 10.62 210.263 10.2474 210.325 9.75057C210.387 9.25373 210.387 8.63268 210.449 7.88742C210.449 7.14215 210.449 6.21057 210.449 5.15479H216.097V13.539H213.987V6.89373H212.435C212.435 8.44636 212.373 9.62636 212.249 10.5579C212.125 11.4895 212.001 12.1727 211.753 12.6074C211.504 13.0422 211.256 13.4148 210.946 13.539C210.635 13.6632 210.263 13.7253 209.891 13.7253Z" fill="#31579C"/>
<path d="M219.448 10.3095C218.952 10.1232 218.579 9.87478 218.331 9.44004C218.083 9.06741 217.959 8.50847 217.959 7.88741C217.959 6.95583 218.207 6.27268 218.703 5.90004C219.2 5.52741 219.883 5.27899 220.689 5.27899H224.165V13.6632H222.055V10.5579H221.496L220.007 13.6632H217.586L219.448 10.3095ZM222.055 9.00531V6.83162H221.186C220.751 6.83162 220.441 6.89373 220.255 7.08004C220.069 7.26636 219.945 7.51478 219.945 7.94952C219.945 8.32215 220.007 8.63268 220.193 8.75689C220.379 8.9432 220.689 9.00531 221.062 9.00531H222.055V9.00531Z" fill="#31579C"/>
<path d="M229.068 13.7874C228.385 13.7874 227.826 13.6632 227.392 13.3527C226.957 13.1043 226.647 12.7316 226.461 12.2348C226.275 11.7379 226.089 11.179 226.089 10.5579C226.089 9.9369 226.027 9.25374 226.027 8.50847C226.027 7.82532 226.089 7.14216 226.151 6.459C226.213 5.77584 226.399 5.2169 226.585 4.65795C226.833 4.099 227.144 3.66426 227.516 3.29163C227.888 2.919 228.447 2.67058 229.068 2.60848C229.564 2.54637 229.998 2.48426 230.247 2.42216C230.495 2.36005 230.619 2.23584 230.681 2.11163H232.233C232.233 2.54637 232.171 2.919 232.046 3.16742C231.922 3.41584 231.798 3.66426 231.55 3.78848C231.364 3.91269 231.054 4.0369 230.805 4.099C230.557 4.16111 230.123 4.22321 229.75 4.28532C229.316 4.34742 229.006 4.40953 228.695 4.47163C228.385 4.59584 228.137 4.72005 227.95 4.90637C227.764 5.09269 227.578 5.34111 227.516 5.65163C227.392 5.96216 227.33 6.33479 227.33 6.83163H227.392C227.454 6.52111 227.64 6.33479 227.764 6.08637C227.95 5.90005 228.137 5.71374 228.323 5.58953C228.509 5.46532 228.757 5.34111 229.006 5.279C229.254 5.2169 229.502 5.15479 229.688 5.15479C230.247 5.15479 230.681 5.279 231.054 5.46532C231.426 5.65163 231.736 5.96216 231.922 6.33479C232.171 6.70742 232.295 7.14216 232.357 7.70111C232.419 8.19795 232.481 8.819 232.481 9.44005C232.481 10.0611 232.419 10.6822 232.357 11.179C232.295 11.6758 232.109 12.1727 231.86 12.5453C231.612 12.9179 231.302 13.2285 230.867 13.4148C230.309 13.6632 229.75 13.7874 229.068 13.7874ZM229.13 12.359C229.316 12.359 229.502 12.2969 229.688 12.2348C229.812 12.1106 229.936 11.9864 230.061 11.7379C230.185 11.4895 230.185 11.2411 230.247 10.8685C230.309 10.4958 230.309 10.0611 230.309 9.50216C230.309 8.94321 230.309 8.44637 230.247 8.13584C230.185 7.76321 230.123 7.51479 230.061 7.26637C229.998 7.08005 229.874 6.89374 229.75 6.83163C229.626 6.76953 229.44 6.70742 229.254 6.70742C229.068 6.70742 228.881 6.76953 228.757 6.83163C228.633 6.89374 228.509 7.08005 228.385 7.32847C228.261 7.5769 228.261 7.82532 228.199 8.19795C228.137 8.57058 228.137 9.06742 228.137 9.62637C228.137 10.6201 228.199 11.3653 228.385 11.8001C228.571 12.2348 228.757 12.359 229.13 12.359Z" fill="#31579C"/>
<path d="M234.095 5.27899H236.08V10.5579L238.315 5.27899H240.549V13.6632H238.563V8.44636L236.329 13.6632H234.095V5.27899Z" fill="#31579C"/>
<path d="M242.473 5.27899H244.583V8.38425H246.569V5.27899H248.679V13.6632H246.569V10.1232H244.583V13.6632H242.473V5.27899Z" fill="#31579C"/>
<path d="M253.582 13.7874C253.085 13.7874 252.589 13.7253 252.216 13.6011C251.844 13.4769 251.472 13.2284 251.223 12.9179C250.975 12.6074 250.789 12.1727 250.665 11.5516C250.541 10.9927 250.479 10.3095 250.479 9.44002C250.479 8.57055 250.541 7.88739 250.727 7.32844C250.913 6.76949 251.099 6.33476 251.41 5.96213C251.72 5.6516 252.03 5.40318 252.465 5.27897C252.899 5.15476 253.333 5.09265 253.83 5.09265C254.823 5.09265 255.506 5.40318 256.002 5.96213C256.499 6.52107 256.747 7.32844 256.747 8.32212H254.761C254.761 8.13581 254.761 7.94949 254.699 7.70107C254.637 7.45265 254.637 7.32844 254.575 7.14213C254.513 6.95581 254.388 6.8316 254.264 6.76949C254.14 6.64528 253.954 6.64528 253.768 6.64528C253.52 6.64528 253.271 6.70739 253.147 6.8316C252.961 6.95581 252.899 7.14212 252.775 7.39055C252.713 7.63897 252.651 7.94949 252.589 8.26002C252.527 8.57055 252.527 9.06739 252.527 9.50213C252.527 9.99897 252.527 10.4337 252.589 10.8063C252.589 11.179 252.651 11.4895 252.775 11.7379C252.837 11.9863 252.961 12.1727 253.147 12.2348C253.271 12.359 253.458 12.4211 253.706 12.4211C254.078 12.4211 254.326 12.2969 254.451 11.9242C254.637 11.6137 254.699 11.1169 254.699 10.4337H256.685C256.685 11.5516 256.437 12.359 255.94 12.9179C255.506 13.4769 254.699 13.7874 253.582 13.7874Z" fill="#31579C"/>
<path d="M258.422 5.27896H260.533V8.69475L262.705 5.21686H265.001L262.643 8.69475L265.311 13.6011H263.015L261.401 10.3716L260.595 11.5516V13.6011H258.485V5.27896H258.422Z" fill="#31579C"/>
<path d="M266.677 5.27899H268.663V10.5579L270.897 5.27899H273.131V13.6632H271.145V8.44636L268.911 13.6632H266.677V5.27899Z" fill="#31579C"/>
<path d="M275.117 5.27897H277.103V10.5579L279.337 5.27897H281.571V13.6632H279.585V8.44634L277.351 13.6632H275.117V5.27897ZM278.22 4.22318C277.537 4.22318 277.041 4.03687 276.668 3.66424C276.296 3.2916 276.11 2.73266 276.11 2.0495H277.103C277.165 2.36003 277.289 2.60845 277.475 2.79476C277.661 2.98108 277.91 3.04318 278.22 3.04318C278.53 3.04318 278.778 2.98108 278.965 2.79476C279.151 2.60845 279.275 2.36003 279.337 2.0495H280.33C280.33 2.73266 280.144 3.2916 279.771 3.66424C279.399 4.03687 278.841 4.22318 278.22 4.22318Z" fill="#31579C"/>
<path d="M290.384 13.7874C289.453 13.7874 288.708 13.6011 288.212 13.1663C287.715 12.7316 287.467 12.0484 287.467 11.0548V10.9305H289.329V11.0548C289.329 11.4895 289.391 11.8621 289.577 12.1105C289.763 12.359 290.012 12.4832 290.446 12.4832C290.756 12.4832 291.005 12.359 291.191 12.1727C291.377 11.9863 291.439 11.6758 291.439 11.3032C291.439 10.8684 291.377 10.5579 291.191 10.3716C291.005 10.1853 290.756 10.1232 290.446 10.1232C290.384 10.1232 290.322 10.1232 290.136 10.1232C289.949 10.1232 289.825 10.1232 289.763 10.1232V8.63265C289.825 8.63265 289.949 8.63265 290.136 8.63265C290.322 8.63265 290.384 8.63265 290.446 8.63265C290.694 8.63265 290.942 8.57055 291.129 8.38423C291.315 8.19791 291.439 7.88739 291.439 7.51476C291.439 7.20423 291.377 6.95581 291.191 6.76949C291.005 6.58318 290.818 6.52107 290.57 6.52107C290.198 6.52107 289.949 6.64528 289.825 6.8316C289.701 7.01791 289.639 7.32844 289.639 7.63897V7.76318H287.777V7.63897C287.777 7.14213 287.839 6.76949 287.964 6.45897C288.088 6.14844 288.336 5.90002 288.584 5.6516C288.832 5.46528 289.143 5.27897 289.515 5.21686C289.887 5.15476 290.26 5.09265 290.694 5.09265C291.625 5.09265 292.37 5.27897 292.804 5.7137C293.239 6.08634 293.487 6.64528 293.487 7.39055C293.487 7.57686 293.487 7.82528 293.425 8.0116C293.363 8.19791 293.301 8.38423 293.177 8.57055C293.053 8.75686 292.928 8.88107 292.804 9.00528C292.68 9.12949 292.494 9.1916 292.246 9.31581C292.68 9.37791 293.053 9.62634 293.301 9.93686C293.549 10.2474 293.673 10.6821 293.673 11.2411C293.673 11.6758 293.611 12.0484 293.425 12.4211C293.301 12.7316 293.053 13.0421 292.804 13.2284C292.556 13.4769 292.184 13.6011 291.811 13.7253C291.253 13.7253 290.818 13.7874 290.384 13.7874Z" fill="#31579C"/>
<path d="M296.962 13.7874C296.59 13.7874 296.28 13.7253 296.031 13.6011C295.783 13.4769 295.597 13.2906 295.411 13.0422C295.225 12.7937 295.163 12.5453 295.101 12.2969C295.039 12.0485 294.976 11.7379 294.976 11.4274C294.976 11.0548 295.039 10.6822 295.101 10.4337C295.163 10.1232 295.287 9.93689 295.473 9.68847C295.659 9.44005 295.845 9.31584 296.094 9.19163C296.342 9.06742 296.652 8.94321 297.024 8.819L298.204 8.50847C298.514 8.44636 298.762 8.32215 298.886 8.19794C299.01 8.07373 299.072 7.82531 299.072 7.57689C299.072 7.26636 299.01 7.01794 298.824 6.83163C298.7 6.64531 298.452 6.58321 298.079 6.58321C297.769 6.58321 297.521 6.70742 297.335 6.89373C297.149 7.08005 297.087 7.32847 297.087 7.7011V7.94952H295.225V7.76321C295.225 7.26636 295.287 6.89373 295.473 6.5211C295.659 6.14847 295.845 5.90005 296.094 5.71373C296.342 5.52742 296.652 5.3411 297.024 5.279C297.397 5.21689 297.769 5.15479 298.142 5.15479C298.762 5.15479 299.259 5.21689 299.631 5.3411C300.003 5.46531 300.314 5.65163 300.562 5.90005C300.748 6.14847 300.934 6.39689 300.996 6.70742C301.058 7.01794 301.121 7.39057 301.121 7.76321V12.1727C301.121 12.5453 301.12 12.8558 301.183 13.1043C301.245 13.3527 301.307 13.539 301.369 13.7874H299.383C299.321 13.6632 299.259 13.539 299.197 13.3527C299.135 13.2285 299.135 13.0422 299.072 12.9179C298.824 13.3527 298.576 13.6632 298.204 13.7874C297.893 13.7253 297.459 13.7874 296.962 13.7874ZM297.769 12.359C297.893 12.359 298.08 12.359 298.204 12.2969C298.328 12.2348 298.514 12.1727 298.638 12.0485C298.762 11.9243 298.886 11.8 298.948 11.6758C299.01 11.4895 299.072 11.3032 299.072 11.0548V9.44005C298.948 9.56426 298.762 9.62636 298.638 9.68847C298.452 9.75057 298.328 9.81268 298.204 9.81268C297.769 9.93689 297.459 10.0611 297.273 10.3095C297.087 10.5579 297.024 10.8064 297.024 11.179C297.024 11.4895 297.087 11.8 297.211 11.9864C297.335 12.2348 297.521 12.359 297.769 12.359Z" fill="#31579C"/>
<path d="M303.106 5.27899H306.582C306.954 5.27899 307.265 5.3411 307.575 5.4032C307.885 5.46531 308.133 5.58952 308.382 5.77583C308.63 5.96215 308.754 6.14847 308.878 6.45899C309.002 6.70741 309.064 7.08004 309.064 7.45268C309.064 7.88741 308.94 8.32215 308.754 8.63268C308.568 8.9432 308.258 9.19162 307.823 9.31583C308.816 9.50215 309.313 10.1853 309.313 11.3653C309.313 11.8621 309.251 12.2348 309.126 12.5453C309.002 12.8558 308.816 13.1043 308.568 13.2906C308.32 13.4769 308.009 13.6011 307.699 13.6632C307.389 13.7253 307.016 13.7874 306.582 13.7874H303.169V5.27899H303.106ZM305.713 8.57057C305.899 8.57057 306.085 8.57057 306.272 8.57057C306.458 8.57057 306.582 8.50847 306.706 8.44636C306.83 8.38426 306.892 8.32215 306.954 8.19794C307.016 8.07373 307.016 7.88741 307.016 7.7011C307.016 7.51478 307.016 7.32847 306.954 7.20426C306.892 7.08004 306.83 7.01794 306.706 6.95583C306.582 6.89373 306.458 6.83162 306.272 6.83162C306.085 6.83162 305.899 6.83162 305.713 6.83162H305.217V8.63268H305.713V8.57057ZM306.023 12.1106C306.396 12.1106 306.706 12.0485 306.892 11.9243C307.078 11.8 307.202 11.4895 307.202 11.0548C307.202 10.62 307.078 10.3716 306.892 10.1853C306.706 10.0611 306.396 9.99899 305.961 9.99899H305.154V12.1727H306.023V12.1106Z" fill="#31579C"/>
<path d="M314.029 13.7874C313.409 13.7874 312.85 13.7253 312.478 13.539C312.105 13.3527 311.733 13.1042 311.485 12.7316C311.236 12.359 311.05 11.9242 310.988 11.3653C310.926 10.8063 310.864 10.1853 310.864 9.44002C310.864 8.69476 310.926 8.0737 311.05 7.57686C311.174 7.01791 311.361 6.58318 311.609 6.21055C311.857 5.83791 312.167 5.58949 312.602 5.40318C313.036 5.21686 313.533 5.09265 314.091 5.09265C314.712 5.09265 315.27 5.21686 315.643 5.40318C316.015 5.58949 316.388 5.83791 316.636 6.21055C316.884 6.58318 317.07 7.01791 317.132 7.57686C317.194 8.13581 317.256 8.75686 317.256 9.50213C317.256 10.2474 317.194 10.8684 317.07 11.4274C316.946 11.9863 316.76 12.4211 316.512 12.7937C316.263 13.1663 315.953 13.4148 315.519 13.6011C315.146 13.7253 314.588 13.7874 314.029 13.7874ZM314.029 12.359C314.464 12.359 314.774 12.1105 314.898 11.6758C315.022 11.2411 315.146 10.4958 315.146 9.44002C315.146 8.38423 315.084 7.63897 314.898 7.20423C314.712 6.76949 314.464 6.52107 314.029 6.52107C313.781 6.52107 313.533 6.58318 313.409 6.76949C313.284 6.8937 313.16 7.14212 313.098 7.39055C313.036 7.63897 312.974 7.94949 312.974 8.32212C312.974 8.69476 312.974 9.06739 312.974 9.50213C312.974 9.93686 312.974 10.3095 312.974 10.6821C312.974 11.0548 313.036 11.3653 313.098 11.6137C313.16 11.8621 313.284 12.0484 313.409 12.2348C313.533 12.2969 313.781 12.359 314.029 12.359Z" fill="#31579C"/>
<path d="M318.373 11.9864H319.056C319.304 11.4274 319.491 10.7443 319.615 9.99899C319.739 9.25373 319.801 8.26004 319.801 7.14215V5.27899H325.324V12.0485H326.255V15.5885H324.331V13.6632H320.173V15.5885H318.373V11.9864ZM323.338 11.9864V6.89373H321.787V7.63899C321.787 7.94952 321.787 8.32215 321.725 8.75689C321.725 9.12952 321.663 9.56425 321.601 9.93689C321.539 10.3095 321.477 10.6821 321.352 11.0548C321.228 11.4274 321.166 11.7379 321.042 12.0485H323.338V11.9864Z" fill="#31579C"/>
</svg>
